%TF.GenerationSoftware,KiCad,Pcbnew,10.0.1*%
%TF.CreationDate,2026-04-26T23:03:41+02:00*%
%TF.ProjectId,carte_aqua,63617274-655f-4617-9175-612e6b696361,rev?*%
%TF.SameCoordinates,Original*%
%TF.FileFunction,Legend,Top*%
%TF.FilePolarity,Positive*%
%FSLAX46Y46*%
G04 Gerber Fmt 4.6, Leading zero omitted, Abs format (unit mm)*
G04 Created by KiCad (PCBNEW 10.0.1) date 2026-04-26 23:03:41*
%MOMM*%
%LPD*%
G01*
G04 APERTURE LIST*
%ADD10C,0.150000*%
%ADD11C,0.120000*%
%ADD12C,0.127000*%
%ADD13C,0.200000*%
G04 APERTURE END LIST*
D10*
X139333333Y-100024819D02*
X139000000Y-99548628D01*
X138761905Y-100024819D02*
X138761905Y-99024819D01*
X138761905Y-99024819D02*
X139142857Y-99024819D01*
X139142857Y-99024819D02*
X139238095Y-99072438D01*
X139238095Y-99072438D02*
X139285714Y-99120057D01*
X139285714Y-99120057D02*
X139333333Y-99215295D01*
X139333333Y-99215295D02*
X139333333Y-99358152D01*
X139333333Y-99358152D02*
X139285714Y-99453390D01*
X139285714Y-99453390D02*
X139238095Y-99501009D01*
X139238095Y-99501009D02*
X139142857Y-99548628D01*
X139142857Y-99548628D02*
X138761905Y-99548628D01*
X140285714Y-100024819D02*
X139714286Y-100024819D01*
X140000000Y-100024819D02*
X140000000Y-99024819D01*
X140000000Y-99024819D02*
X139904762Y-99167676D01*
X139904762Y-99167676D02*
X139809524Y-99262914D01*
X139809524Y-99262914D02*
X139714286Y-99310533D01*
X144854819Y-99333333D02*
X145569104Y-99333333D01*
X145569104Y-99333333D02*
X145711961Y-99380952D01*
X145711961Y-99380952D02*
X145807200Y-99476190D01*
X145807200Y-99476190D02*
X145854819Y-99619047D01*
X145854819Y-99619047D02*
X145854819Y-99714285D01*
X145854819Y-98333333D02*
X145854819Y-98904761D01*
X145854819Y-98619047D02*
X144854819Y-98619047D01*
X144854819Y-98619047D02*
X144997676Y-98714285D01*
X144997676Y-98714285D02*
X145092914Y-98809523D01*
X145092914Y-98809523D02*
X145140533Y-98904761D01*
X91754819Y-115083333D02*
X92469104Y-115083333D01*
X92469104Y-115083333D02*
X92611961Y-115130952D01*
X92611961Y-115130952D02*
X92707200Y-115226190D01*
X92707200Y-115226190D02*
X92754819Y-115369047D01*
X92754819Y-115369047D02*
X92754819Y-115464285D01*
X91754819Y-114130952D02*
X91754819Y-114607142D01*
X91754819Y-114607142D02*
X92231009Y-114654761D01*
X92231009Y-114654761D02*
X92183390Y-114607142D01*
X92183390Y-114607142D02*
X92135771Y-114511904D01*
X92135771Y-114511904D02*
X92135771Y-114273809D01*
X92135771Y-114273809D02*
X92183390Y-114178571D01*
X92183390Y-114178571D02*
X92231009Y-114130952D01*
X92231009Y-114130952D02*
X92326247Y-114083333D01*
X92326247Y-114083333D02*
X92564342Y-114083333D01*
X92564342Y-114083333D02*
X92659580Y-114130952D01*
X92659580Y-114130952D02*
X92707200Y-114178571D01*
X92707200Y-114178571D02*
X92754819Y-114273809D01*
X92754819Y-114273809D02*
X92754819Y-114511904D01*
X92754819Y-114511904D02*
X92707200Y-114607142D01*
X92707200Y-114607142D02*
X92659580Y-114654761D01*
X144654819Y-115333333D02*
X145369104Y-115333333D01*
X145369104Y-115333333D02*
X145511961Y-115380952D01*
X145511961Y-115380952D02*
X145607200Y-115476190D01*
X145607200Y-115476190D02*
X145654819Y-115619047D01*
X145654819Y-115619047D02*
X145654819Y-115714285D01*
X144654819Y-114952380D02*
X144654819Y-114333333D01*
X144654819Y-114333333D02*
X145035771Y-114666666D01*
X145035771Y-114666666D02*
X145035771Y-114523809D01*
X145035771Y-114523809D02*
X145083390Y-114428571D01*
X145083390Y-114428571D02*
X145131009Y-114380952D01*
X145131009Y-114380952D02*
X145226247Y-114333333D01*
X145226247Y-114333333D02*
X145464342Y-114333333D01*
X145464342Y-114333333D02*
X145559580Y-114380952D01*
X145559580Y-114380952D02*
X145607200Y-114428571D01*
X145607200Y-114428571D02*
X145654819Y-114523809D01*
X145654819Y-114523809D02*
X145654819Y-114809523D01*
X145654819Y-114809523D02*
X145607200Y-114904761D01*
X145607200Y-114904761D02*
X145559580Y-114952380D01*
X91754819Y-90333333D02*
X92469104Y-90333333D01*
X92469104Y-90333333D02*
X92611961Y-90380952D01*
X92611961Y-90380952D02*
X92707200Y-90476190D01*
X92707200Y-90476190D02*
X92754819Y-90619047D01*
X92754819Y-90619047D02*
X92754819Y-90714285D01*
X91850057Y-89904761D02*
X91802438Y-89857142D01*
X91802438Y-89857142D02*
X91754819Y-89761904D01*
X91754819Y-89761904D02*
X91754819Y-89523809D01*
X91754819Y-89523809D02*
X91802438Y-89428571D01*
X91802438Y-89428571D02*
X91850057Y-89380952D01*
X91850057Y-89380952D02*
X91945295Y-89333333D01*
X91945295Y-89333333D02*
X92040533Y-89333333D01*
X92040533Y-89333333D02*
X92183390Y-89380952D01*
X92183390Y-89380952D02*
X92754819Y-89952380D01*
X92754819Y-89952380D02*
X92754819Y-89333333D01*
X152154819Y-82833333D02*
X152869104Y-82833333D01*
X152869104Y-82833333D02*
X153011961Y-82880952D01*
X153011961Y-82880952D02*
X153107200Y-82976190D01*
X153107200Y-82976190D02*
X153154819Y-83119047D01*
X153154819Y-83119047D02*
X153154819Y-83214285D01*
X152154819Y-81928571D02*
X152154819Y-82119047D01*
X152154819Y-82119047D02*
X152202438Y-82214285D01*
X152202438Y-82214285D02*
X152250057Y-82261904D01*
X152250057Y-82261904D02*
X152392914Y-82357142D01*
X152392914Y-82357142D02*
X152583390Y-82404761D01*
X152583390Y-82404761D02*
X152964342Y-82404761D01*
X152964342Y-82404761D02*
X153059580Y-82357142D01*
X153059580Y-82357142D02*
X153107200Y-82309523D01*
X153107200Y-82309523D02*
X153154819Y-82214285D01*
X153154819Y-82214285D02*
X153154819Y-82023809D01*
X153154819Y-82023809D02*
X153107200Y-81928571D01*
X153107200Y-81928571D02*
X153059580Y-81880952D01*
X153059580Y-81880952D02*
X152964342Y-81833333D01*
X152964342Y-81833333D02*
X152726247Y-81833333D01*
X152726247Y-81833333D02*
X152631009Y-81880952D01*
X152631009Y-81880952D02*
X152583390Y-81928571D01*
X152583390Y-81928571D02*
X152535771Y-82023809D01*
X152535771Y-82023809D02*
X152535771Y-82214285D01*
X152535771Y-82214285D02*
X152583390Y-82309523D01*
X152583390Y-82309523D02*
X152631009Y-82357142D01*
X152631009Y-82357142D02*
X152726247Y-82404761D01*
X92254819Y-74833333D02*
X92969104Y-74833333D01*
X92969104Y-74833333D02*
X93111961Y-74880952D01*
X93111961Y-74880952D02*
X93207200Y-74976190D01*
X93207200Y-74976190D02*
X93254819Y-75119047D01*
X93254819Y-75119047D02*
X93254819Y-75214285D01*
X92588152Y-73928571D02*
X93254819Y-73928571D01*
X92207200Y-74166666D02*
X92921485Y-74404761D01*
X92921485Y-74404761D02*
X92921485Y-73785714D01*
X109433095Y-69844819D02*
X109433095Y-70654342D01*
X109433095Y-70654342D02*
X109480714Y-70749580D01*
X109480714Y-70749580D02*
X109528333Y-70797200D01*
X109528333Y-70797200D02*
X109623571Y-70844819D01*
X109623571Y-70844819D02*
X109814047Y-70844819D01*
X109814047Y-70844819D02*
X109909285Y-70797200D01*
X109909285Y-70797200D02*
X109956904Y-70749580D01*
X109956904Y-70749580D02*
X110004523Y-70654342D01*
X110004523Y-70654342D02*
X110004523Y-69844819D01*
X111004523Y-70844819D02*
X110433095Y-70844819D01*
X110718809Y-70844819D02*
X110718809Y-69844819D01*
X110718809Y-69844819D02*
X110623571Y-69987676D01*
X110623571Y-69987676D02*
X110528333Y-70082914D01*
X110528333Y-70082914D02*
X110433095Y-70130533D01*
%TO.C,R1*%
D11*
X139262742Y-100477500D02*
X139737258Y-100477500D01*
X139262742Y-101522500D02*
X139737258Y-101522500D01*
%TO.C,J1*%
X146990000Y-94390000D02*
X148200000Y-94390000D01*
X146990000Y-103610000D02*
X146990000Y-94390000D01*
X148200000Y-94390000D02*
X148200000Y-93890000D01*
X148200000Y-103610000D02*
X146990000Y-103610000D01*
X148200000Y-104110000D02*
X148200000Y-103610000D01*
X148310000Y-104410000D02*
X150810000Y-104410000D01*
X149010000Y-93890000D02*
X149010000Y-94890000D01*
X149010000Y-94890000D02*
X150510000Y-94890000D01*
X149010000Y-103110000D02*
X150510000Y-103110000D01*
X149010000Y-104110000D02*
X149010000Y-103110000D01*
X150810000Y-104410000D02*
X150810000Y-101910000D01*
X146490000Y-93890000D02*
X150510000Y-93890000D01*
X150510000Y-104110000D01*
X146490000Y-104110000D01*
X146490000Y-93890000D01*
%TO.C,J5*%
X86890000Y-108090000D02*
X86890000Y-110590000D01*
X88690000Y-108390000D02*
X88690000Y-109390000D01*
X88690000Y-109390000D02*
X87190000Y-109390000D01*
X88690000Y-120110000D02*
X87190000Y-120110000D01*
X88690000Y-121110000D02*
X88690000Y-120110000D01*
X89390000Y-108090000D02*
X86890000Y-108090000D01*
X89500000Y-108390000D02*
X89500000Y-108890000D01*
X89500000Y-108890000D02*
X90710000Y-108890000D01*
X89500000Y-120610000D02*
X89500000Y-121110000D01*
X90710000Y-108890000D02*
X90710000Y-120610000D01*
X90710000Y-120610000D02*
X89500000Y-120610000D01*
X87190000Y-108390000D02*
X91210000Y-108390000D01*
X91210000Y-121110000D01*
X87190000Y-121110000D01*
X87190000Y-108390000D01*
%TO.C,J3*%
X146790000Y-110390000D02*
X148000000Y-110390000D01*
X146790000Y-119610000D02*
X146790000Y-110390000D01*
X148000000Y-110390000D02*
X148000000Y-109890000D01*
X148000000Y-119610000D02*
X146790000Y-119610000D01*
X148000000Y-120110000D02*
X148000000Y-119610000D01*
X148110000Y-120410000D02*
X150610000Y-120410000D01*
X148810000Y-109890000D02*
X148810000Y-110890000D01*
X148810000Y-110890000D02*
X150310000Y-110890000D01*
X148810000Y-119110000D02*
X150310000Y-119110000D01*
X148810000Y-120110000D02*
X148810000Y-119110000D01*
X150610000Y-120410000D02*
X150610000Y-117910000D01*
X146290000Y-109890000D02*
X150310000Y-109890000D01*
X150310000Y-120110000D01*
X146290000Y-120110000D01*
X146290000Y-109890000D01*
%TO.C,J2*%
X86890000Y-84590000D02*
X86890000Y-87090000D01*
X88690000Y-84890000D02*
X88690000Y-85890000D01*
X88690000Y-85890000D02*
X87190000Y-85890000D01*
X88690000Y-94110000D02*
X87190000Y-94110000D01*
X88690000Y-95110000D02*
X88690000Y-94110000D01*
X89390000Y-84590000D02*
X86890000Y-84590000D01*
X89500000Y-84890000D02*
X89500000Y-85390000D01*
X89500000Y-85390000D02*
X90710000Y-85390000D01*
X89500000Y-94610000D02*
X89500000Y-95110000D01*
X90710000Y-85390000D02*
X90710000Y-94610000D01*
X90710000Y-94610000D02*
X89500000Y-94610000D01*
X87190000Y-84890000D02*
X91210000Y-84890000D01*
X91210000Y-95110000D01*
X87190000Y-95110000D01*
X87190000Y-84890000D01*
%TO.C,J6*%
X153700000Y-83500000D02*
X153700000Y-81500000D01*
X153890000Y-77390000D02*
X159950000Y-77390000D01*
X153890000Y-80200000D02*
X153890000Y-77390000D01*
X153890000Y-87610000D02*
X153890000Y-84800000D01*
X159950000Y-87610000D02*
X153890000Y-87610000D01*
X164050000Y-77390000D02*
X167110000Y-77390000D01*
X167110000Y-77390000D02*
X167110000Y-87610000D01*
X167110000Y-87610000D02*
X164050000Y-87610000D01*
%TO.C,J4*%
X87390000Y-69090000D02*
X87390000Y-71590000D01*
X89190000Y-69390000D02*
X89190000Y-70390000D01*
X89190000Y-70390000D02*
X87690000Y-70390000D01*
X89190000Y-78610000D02*
X87690000Y-78610000D01*
X89190000Y-79610000D02*
X89190000Y-78610000D01*
X89890000Y-69090000D02*
X87390000Y-69090000D01*
X90000000Y-69390000D02*
X90000000Y-69890000D01*
X90000000Y-69890000D02*
X91210000Y-69890000D01*
X90000000Y-79110000D02*
X90000000Y-79610000D01*
X91210000Y-69890000D02*
X91210000Y-79110000D01*
X91210000Y-79110000D02*
X90000000Y-79110000D01*
X87690000Y-69390000D02*
X91710000Y-69390000D01*
X91710000Y-79610000D01*
X87690000Y-79610000D01*
X87690000Y-69390000D01*
%TO.C,U1*%
D12*
X107270000Y-72275000D02*
X118339000Y-72275000D01*
X107270000Y-72275000D02*
X135780000Y-72275000D01*
X107270000Y-123225000D02*
X107270000Y-72275000D01*
X107270000Y-123225000D02*
X107270000Y-72275000D01*
X107270000Y-123225000D02*
X112640000Y-123225000D01*
X112640000Y-123225000D02*
X130330000Y-123225000D01*
X118339000Y-72275000D02*
X125050000Y-72275000D01*
X125050000Y-72275000D02*
X135780000Y-72275000D01*
X130330000Y-123225000D02*
X135780000Y-123225000D01*
X135780000Y-72275000D02*
X135780000Y-123225000D01*
X135780000Y-72275000D02*
X135780000Y-123225000D01*
X135780000Y-123225000D02*
X107270000Y-123225000D01*
D13*
X106800000Y-82235000D02*
G75*
G02*
X106600000Y-82235000I-100000J0D01*
G01*
X106600000Y-82235000D02*
G75*
G02*
X106800000Y-82235000I100000J0D01*
G01*
%TD*%
M02*
