%TF.GenerationSoftware,KiCad,Pcbnew,10.0.1*%
%TF.CreationDate,2026-04-26T23:03:41+02:00*%
%TF.ProjectId,carte_aqua,63617274-655f-4617-9175-612e6b696361,rev?*%
%TF.SameCoordinates,Original*%
%TF.FileFunction,Copper,L2,Bot*%
%TF.FilePolarity,Positive*%
%FSLAX46Y46*%
G04 Gerber Fmt 4.6, Leading zero omitted, Abs format (unit mm)*
G04 Created by KiCad (PCBNEW 10.0.1) date 2026-04-26 23:03:41*
%MOMM*%
%LPD*%
G01*
G04 APERTURE LIST*
G04 Aperture macros list*
%AMRoundRect*
0 Rectangle with rounded corners*
0 $1 Rounding radius*
0 $2 $3 $4 $5 $6 $7 $8 $9 X,Y pos of 4 corners*
0 Add a 4 corners polygon primitive as box body*
4,1,4,$2,$3,$4,$5,$6,$7,$8,$9,$2,$3,0*
0 Add four circle primitives for the rounded corners*
1,1,$1+$1,$2,$3*
1,1,$1+$1,$4,$5*
1,1,$1+$1,$6,$7*
1,1,$1+$1,$8,$9*
0 Add four rect primitives between the rounded corners*
20,1,$1+$1,$2,$3,$4,$5,0*
20,1,$1+$1,$4,$5,$6,$7,0*
20,1,$1+$1,$6,$7,$8,$9,0*
20,1,$1+$1,$8,$9,$2,$3,0*%
G04 Aperture macros list end*
%TA.AperFunction,ComponentPad*%
%ADD10RoundRect,0.250000X0.725000X-0.600000X0.725000X0.600000X-0.725000X0.600000X-0.725000X-0.600000X0*%
%TD*%
%TA.AperFunction,ComponentPad*%
%ADD11O,1.950000X1.700000*%
%TD*%
%TA.AperFunction,ComponentPad*%
%ADD12RoundRect,0.250000X-0.725000X0.600000X-0.725000X-0.600000X0.725000X-0.600000X0.725000X0.600000X0*%
%TD*%
%TA.AperFunction,ComponentPad*%
%ADD13R,2.000000X4.000000*%
%TD*%
%TA.AperFunction,ComponentPad*%
%ADD14O,2.000000X3.300000*%
%TD*%
%TA.AperFunction,ComponentPad*%
%ADD15O,3.500000X2.000000*%
%TD*%
%TA.AperFunction,ComponentPad*%
%ADD16R,2.000000X2.000000*%
%TD*%
%TA.AperFunction,ComponentPad*%
%ADD17C,2.000000*%
%TD*%
%TA.AperFunction,ViaPad*%
%ADD18C,0.600000*%
%TD*%
%TA.AperFunction,Conductor*%
%ADD19C,0.200000*%
%TD*%
%TA.AperFunction,Conductor*%
%ADD20C,1.000000*%
%TD*%
G04 APERTURE END LIST*
D10*
%TO.P,J1,1,Pin_1_1*%
%TO.N,Net-(J1-Pin_1)*%
X148200000Y-101500000D03*
D11*
%TO.P,J1,2,Pin_2_2*%
%TO.N,Net-(J1-Pin_2)*%
X148200000Y-99000000D03*
%TO.P,J1,3,Pin_3_3*%
%TO.N,GND*%
X148200000Y-96500000D03*
%TD*%
D12*
%TO.P,J5,1,Pin_1_1*%
%TO.N,GND*%
X89500000Y-111000000D03*
D11*
%TO.P,J5,2,Pin_2_2*%
%TO.N,Net-(J1-Pin_2)*%
X89500000Y-113500000D03*
%TO.P,J5,3,Pin_3_3*%
%TO.N,Net-(J5-Pin_3)*%
X89500000Y-116000000D03*
%TO.P,J5,4,Pin_4_4*%
%TO.N,Net-(J5-Pin_4)*%
X89500000Y-118500000D03*
%TD*%
D10*
%TO.P,J3,1,Pin_1_1*%
%TO.N,GND*%
X148000000Y-117500000D03*
D11*
%TO.P,J3,2,Pin_2_2*%
%TO.N,Net-(J1-Pin_2)*%
X148000000Y-115000000D03*
%TO.P,J3,3,Pin_3_3*%
%TO.N,Net-(J3-Pin_3)*%
X148000000Y-112500000D03*
%TD*%
D12*
%TO.P,J2,1,Pin_1_1*%
%TO.N,Net-(J2-Pin_1)*%
X89500000Y-87500000D03*
D11*
%TO.P,J2,2,Pin_2_2*%
%TO.N,Net-(J1-Pin_2)*%
X89500000Y-90000000D03*
%TO.P,J2,3,Pin_3_3*%
%TO.N,GND*%
X89500000Y-92500000D03*
%TD*%
D13*
%TO.P,J6,1*%
%TO.N,Net-(U1-VIN)*%
X155000000Y-82500000D03*
D14*
%TO.P,J6,2*%
%TO.N,GND*%
X161000000Y-82500000D03*
D15*
%TO.P,J6,MP*%
%TO.N,N/C*%
X162000000Y-87000000D03*
X162000000Y-78000000D03*
%TD*%
D12*
%TO.P,J4,1,Pin_1_1*%
%TO.N,GND*%
X90000000Y-72000000D03*
D11*
%TO.P,J4,2,Pin_2_2*%
%TO.N,Net-(J1-Pin_2)*%
X90000000Y-74500000D03*
%TO.P,J4,3,Pin_3_3*%
%TO.N,Net-(J4-Pin_3)*%
X90000000Y-77000000D03*
%TD*%
D16*
%TO.P,U1,1,3V3_1*%
%TO.N,Net-(J1-Pin_2)*%
X108850000Y-82235000D03*
D17*
%TO.P,U1,2,GND_2*%
%TO.N,GND*%
X108850000Y-84775000D03*
%TO.P,U1,3,D15_3*%
%TO.N,Net-(J2-Pin_1)*%
X108850000Y-87315000D03*
%TO.P,U1,4,D2_4*%
%TO.N,unconnected-(U1-D2-Pad4)*%
X108850000Y-89855000D03*
%TO.P,U1,5,D4_5*%
%TO.N,unconnected-(U1-D4-Pad5)*%
X108850000Y-92395000D03*
%TO.P,U1,6,RX2_6*%
%TO.N,unconnected-(U1-RX2-Pad6)*%
X108850000Y-94935000D03*
%TO.P,U1,7,TX2_7*%
%TO.N,unconnected-(U1-TX2-Pad7)*%
X108850000Y-97475000D03*
%TO.P,U1,8,D5_8*%
%TO.N,unconnected-(U1-D5-Pad8)*%
X108850000Y-100015000D03*
%TO.P,U1,9,D18_9*%
%TO.N,unconnected-(U1-D18-Pad9)*%
X108850000Y-102555000D03*
%TO.P,U1,10,D19_10*%
%TO.N,unconnected-(U1-D19-Pad10)*%
X108850000Y-105095000D03*
%TO.P,U1,11,D21_11*%
%TO.N,Net-(J5-Pin_4)*%
X108850000Y-107635000D03*
%TO.P,U1,12,RX0_12*%
%TO.N,unconnected-(U1-RX0-Pad12)*%
X108850000Y-110175000D03*
%TO.P,U1,13,TX0_13*%
%TO.N,unconnected-(U1-TX0-Pad13)*%
X108850000Y-112715000D03*
%TO.P,U1,14,D22_14*%
%TO.N,Net-(J5-Pin_3)*%
X108850000Y-115255000D03*
%TO.P,U1,15,D23_15*%
%TO.N,unconnected-(U1-D23-Pad15)*%
X108850000Y-117795000D03*
%TO.P,U1,16,EN_16*%
%TO.N,unconnected-(U1-EN-Pad16)*%
X134250000Y-117795000D03*
%TO.P,U1,17,VP_17*%
%TO.N,unconnected-(U1-VP-Pad17)*%
X134250000Y-115255000D03*
%TO.P,U1,18,VN_18*%
%TO.N,unconnected-(U1-VN-Pad18)*%
X134250000Y-112715000D03*
%TO.P,U1,19,D34_19*%
%TO.N,Net-(J4-Pin_3)*%
X134250000Y-110175000D03*
%TO.P,U1,20,D35_20*%
%TO.N,Net-(J3-Pin_3)*%
X134250000Y-107635000D03*
%TO.P,U1,21,D32_21*%
%TO.N,unconnected-(U1-D32-Pad21)*%
X134250000Y-105095000D03*
%TO.P,U1,22,D33_22*%
%TO.N,unconnected-(U1-D33-Pad22)*%
X134250000Y-102555000D03*
%TO.P,U1,23,D25_23*%
%TO.N,unconnected-(U1-D25-Pad23)*%
X134250000Y-100015000D03*
%TO.P,U1,24,D26_24*%
%TO.N,unconnected-(U1-D26-Pad24)*%
X134250000Y-97475000D03*
%TO.P,U1,25,D27_25*%
%TO.N,unconnected-(U1-D27-Pad25)*%
X134250000Y-94935000D03*
%TO.P,U1,26,D14_26*%
%TO.N,unconnected-(U1-D14-Pad26)*%
X134250000Y-92395000D03*
%TO.P,U1,27,D12_27*%
%TO.N,unconnected-(U1-D12-Pad27)*%
X134250000Y-89855000D03*
%TO.P,U1,28,D13_28*%
%TO.N,Net-(J1-Pin_1)*%
X134250000Y-87315000D03*
%TO.P,U1,29,GND_29*%
%TO.N,GND*%
X134250000Y-84775000D03*
%TO.P,U1,30,VIN_30*%
%TO.N,Net-(U1-VIN)*%
X134250000Y-82235000D03*
%TD*%
D18*
%TO.N,GND*%
X104000000Y-90500000D03*
X146500000Y-80000000D03*
X104500000Y-86500000D03*
X143000000Y-85000000D03*
X140000000Y-83500000D03*
X119000000Y-86000000D03*
X96000000Y-73500000D03*
X144000000Y-86000000D03*
%TO.N,Net-(J1-Pin_2)*%
X137500000Y-83500000D03*
X113500000Y-82000000D03*
X137500000Y-88300000D03*
X137500000Y-91500000D03*
%TO.N,Net-(J1-Pin_1)*%
X142500000Y-99000000D03*
X144217500Y-97282500D03*
%TO.N,Net-(J2-Pin_1)*%
X106888235Y-85888235D03*
%TO.N,Net-(J5-Pin_4)*%
X97500000Y-117500000D03*
%TO.N,Net-(J4-Pin_3)*%
X102500000Y-78000000D03*
X115000000Y-78000000D03*
%TD*%
%TO.N,GND*%
D19*
X144000000Y-86000000D02*
X143000000Y-85000000D01*
X104000000Y-90500000D02*
X104000000Y-89625000D01*
D20*
X119000000Y-86000000D02*
X112500000Y-86000000D01*
D19*
X104500000Y-86500000D02*
X106225000Y-84775000D01*
X140000000Y-83500000D02*
X136500000Y-80000000D01*
D20*
X141725000Y-84775000D02*
X134250000Y-84775000D01*
X146500000Y-80000000D02*
X141725000Y-84775000D01*
X112500000Y-86000000D02*
X111275000Y-84775000D01*
D19*
X104000000Y-89625000D02*
X108850000Y-84775000D01*
X96000000Y-73500000D02*
X107275000Y-84775000D01*
X106225000Y-84775000D02*
X108850000Y-84775000D01*
D20*
X111275000Y-84775000D02*
X108850000Y-84775000D01*
D19*
X113625000Y-80000000D02*
X108850000Y-84775000D01*
X107275000Y-84775000D02*
X108850000Y-84775000D01*
X136500000Y-80000000D02*
X113625000Y-80000000D01*
%TO.N,Net-(J1-Pin_2)*%
X137500000Y-83500000D02*
X137500000Y-82500000D01*
X115000000Y-80500000D02*
X113500000Y-82000000D01*
X135500000Y-80500000D02*
X115000000Y-80500000D01*
X137500000Y-82500000D02*
X135500000Y-80500000D01*
X137500000Y-91500000D02*
X137500000Y-88300000D01*
%TO.N,Net-(J1-Pin_1)*%
X142500000Y-99000000D02*
X144217500Y-97282500D01*
%TO.N,Net-(J2-Pin_1)*%
X104500000Y-87500000D02*
X89500000Y-87500000D01*
X106111765Y-85888235D02*
X104500000Y-87500000D01*
X106888235Y-85888235D02*
X106111765Y-85888235D01*
%TO.N,Net-(J5-Pin_4)*%
X107365000Y-107635000D02*
X108850000Y-107635000D01*
X97500000Y-117500000D02*
X107365000Y-107635000D01*
%TO.N,Net-(J4-Pin_3)*%
X102500000Y-78000000D02*
X115000000Y-78000000D01*
%TD*%
M02*
