%TF.GenerationSoftware,KiCad,Pcbnew,10.0.1*%
%TF.CreationDate,2026-04-26T23:03:41+02:00*%
%TF.ProjectId,carte_aqua,63617274-655f-4617-9175-612e6b696361,rev?*%
%TF.SameCoordinates,Original*%
%TF.FileFunction,Copper,L1,Top*%
%TF.FilePolarity,Positive*%
%FSLAX46Y46*%
G04 Gerber Fmt 4.6, Leading zero omitted, Abs format (unit mm)*
G04 Created by KiCad (PCBNEW 10.0.1) date 2026-04-26 23:03:41*
%MOMM*%
%LPD*%
G01*
G04 APERTURE LIST*
G04 Aperture macros list*
%AMRoundRect*
0 Rectangle with rounded corners*
0 $1 Rounding radius*
0 $2 $3 $4 $5 $6 $7 $8 $9 X,Y pos of 4 corners*
0 Add a 4 corners polygon primitive as box body*
4,1,4,$2,$3,$4,$5,$6,$7,$8,$9,$2,$3,0*
0 Add four circle primitives for the rounded corners*
1,1,$1+$1,$2,$3*
1,1,$1+$1,$4,$5*
1,1,$1+$1,$6,$7*
1,1,$1+$1,$8,$9*
0 Add four rect primitives between the rounded corners*
20,1,$1+$1,$2,$3,$4,$5,0*
20,1,$1+$1,$4,$5,$6,$7,0*
20,1,$1+$1,$6,$7,$8,$9,0*
20,1,$1+$1,$8,$9,$2,$3,0*%
G04 Aperture macros list end*
%TA.AperFunction,SMDPad,CuDef*%
%ADD10RoundRect,0.200000X-0.200000X-0.275000X0.200000X-0.275000X0.200000X0.275000X-0.200000X0.275000X0*%
%TD*%
%TA.AperFunction,ComponentPad*%
%ADD11RoundRect,0.250000X0.725000X-0.600000X0.725000X0.600000X-0.725000X0.600000X-0.725000X-0.600000X0*%
%TD*%
%TA.AperFunction,ComponentPad*%
%ADD12O,1.950000X1.700000*%
%TD*%
%TA.AperFunction,ComponentPad*%
%ADD13RoundRect,0.250000X-0.725000X0.600000X-0.725000X-0.600000X0.725000X-0.600000X0.725000X0.600000X0*%
%TD*%
%TA.AperFunction,ComponentPad*%
%ADD14R,2.000000X4.000000*%
%TD*%
%TA.AperFunction,ComponentPad*%
%ADD15O,2.000000X3.300000*%
%TD*%
%TA.AperFunction,ComponentPad*%
%ADD16O,3.500000X2.000000*%
%TD*%
%TA.AperFunction,ComponentPad*%
%ADD17R,2.000000X2.000000*%
%TD*%
%TA.AperFunction,ComponentPad*%
%ADD18C,2.000000*%
%TD*%
%TA.AperFunction,ViaPad*%
%ADD19C,0.600000*%
%TD*%
%TA.AperFunction,Conductor*%
%ADD20C,0.200000*%
%TD*%
%TA.AperFunction,Conductor*%
%ADD21C,1.000000*%
%TD*%
G04 APERTURE END LIST*
D10*
%TO.P,R1,1*%
%TO.N,Net-(J1-Pin_2)*%
X138675000Y-101000000D03*
%TO.P,R1,2*%
%TO.N,Net-(J1-Pin_1)*%
X140325000Y-101000000D03*
%TD*%
D11*
%TO.P,J1,1,Pin_1_1*%
%TO.N,Net-(J1-Pin_1)*%
X148200000Y-101500000D03*
D12*
%TO.P,J1,2,Pin_2_2*%
%TO.N,Net-(J1-Pin_2)*%
X148200000Y-99000000D03*
%TO.P,J1,3,Pin_3_3*%
%TO.N,GND*%
X148200000Y-96500000D03*
%TD*%
D13*
%TO.P,J5,1,Pin_1_1*%
%TO.N,GND*%
X89500000Y-111000000D03*
D12*
%TO.P,J5,2,Pin_2_2*%
%TO.N,Net-(J1-Pin_2)*%
X89500000Y-113500000D03*
%TO.P,J5,3,Pin_3_3*%
%TO.N,Net-(J5-Pin_3)*%
X89500000Y-116000000D03*
%TO.P,J5,4,Pin_4_4*%
%TO.N,Net-(J5-Pin_4)*%
X89500000Y-118500000D03*
%TD*%
D11*
%TO.P,J3,1,Pin_1_1*%
%TO.N,GND*%
X148000000Y-117500000D03*
D12*
%TO.P,J3,2,Pin_2_2*%
%TO.N,Net-(J1-Pin_2)*%
X148000000Y-115000000D03*
%TO.P,J3,3,Pin_3_3*%
%TO.N,Net-(J3-Pin_3)*%
X148000000Y-112500000D03*
%TD*%
D13*
%TO.P,J2,1,Pin_1_1*%
%TO.N,Net-(J2-Pin_1)*%
X89500000Y-87500000D03*
D12*
%TO.P,J2,2,Pin_2_2*%
%TO.N,Net-(J1-Pin_2)*%
X89500000Y-90000000D03*
%TO.P,J2,3,Pin_3_3*%
%TO.N,GND*%
X89500000Y-92500000D03*
%TD*%
D14*
%TO.P,J6,1*%
%TO.N,Net-(U1-VIN)*%
X155000000Y-82500000D03*
D15*
%TO.P,J6,2*%
%TO.N,GND*%
X161000000Y-82500000D03*
D16*
%TO.P,J6,MP*%
%TO.N,N/C*%
X162000000Y-87000000D03*
X162000000Y-78000000D03*
%TD*%
D13*
%TO.P,J4,1,Pin_1_1*%
%TO.N,GND*%
X90000000Y-72000000D03*
D12*
%TO.P,J4,2,Pin_2_2*%
%TO.N,Net-(J1-Pin_2)*%
X90000000Y-74500000D03*
%TO.P,J4,3,Pin_3_3*%
%TO.N,Net-(J4-Pin_3)*%
X90000000Y-77000000D03*
%TD*%
D17*
%TO.P,U1,1,3V3_1*%
%TO.N,Net-(J1-Pin_2)*%
X108850000Y-82235000D03*
D18*
%TO.P,U1,2,GND_2*%
%TO.N,GND*%
X108850000Y-84775000D03*
%TO.P,U1,3,D15_3*%
%TO.N,Net-(J2-Pin_1)*%
X108850000Y-87315000D03*
%TO.P,U1,4,D2_4*%
%TO.N,unconnected-(U1-D2-Pad4)*%
X108850000Y-89855000D03*
%TO.P,U1,5,D4_5*%
%TO.N,unconnected-(U1-D4-Pad5)*%
X108850000Y-92395000D03*
%TO.P,U1,6,RX2_6*%
%TO.N,unconnected-(U1-RX2-Pad6)*%
X108850000Y-94935000D03*
%TO.P,U1,7,TX2_7*%
%TO.N,unconnected-(U1-TX2-Pad7)*%
X108850000Y-97475000D03*
%TO.P,U1,8,D5_8*%
%TO.N,unconnected-(U1-D5-Pad8)*%
X108850000Y-100015000D03*
%TO.P,U1,9,D18_9*%
%TO.N,unconnected-(U1-D18-Pad9)*%
X108850000Y-102555000D03*
%TO.P,U1,10,D19_10*%
%TO.N,unconnected-(U1-D19-Pad10)*%
X108850000Y-105095000D03*
%TO.P,U1,11,D21_11*%
%TO.N,Net-(J5-Pin_4)*%
X108850000Y-107635000D03*
%TO.P,U1,12,RX0_12*%
%TO.N,unconnected-(U1-RX0-Pad12)*%
X108850000Y-110175000D03*
%TO.P,U1,13,TX0_13*%
%TO.N,unconnected-(U1-TX0-Pad13)*%
X108850000Y-112715000D03*
%TO.P,U1,14,D22_14*%
%TO.N,Net-(J5-Pin_3)*%
X108850000Y-115255000D03*
%TO.P,U1,15,D23_15*%
%TO.N,unconnected-(U1-D23-Pad15)*%
X108850000Y-117795000D03*
%TO.P,U1,16,EN_16*%
%TO.N,unconnected-(U1-EN-Pad16)*%
X134250000Y-117795000D03*
%TO.P,U1,17,VP_17*%
%TO.N,unconnected-(U1-VP-Pad17)*%
X134250000Y-115255000D03*
%TO.P,U1,18,VN_18*%
%TO.N,unconnected-(U1-VN-Pad18)*%
X134250000Y-112715000D03*
%TO.P,U1,19,D34_19*%
%TO.N,Net-(J4-Pin_3)*%
X134250000Y-110175000D03*
%TO.P,U1,20,D35_20*%
%TO.N,Net-(J3-Pin_3)*%
X134250000Y-107635000D03*
%TO.P,U1,21,D32_21*%
%TO.N,unconnected-(U1-D32-Pad21)*%
X134250000Y-105095000D03*
%TO.P,U1,22,D33_22*%
%TO.N,unconnected-(U1-D33-Pad22)*%
X134250000Y-102555000D03*
%TO.P,U1,23,D25_23*%
%TO.N,unconnected-(U1-D25-Pad23)*%
X134250000Y-100015000D03*
%TO.P,U1,24,D26_24*%
%TO.N,unconnected-(U1-D26-Pad24)*%
X134250000Y-97475000D03*
%TO.P,U1,25,D27_25*%
%TO.N,unconnected-(U1-D27-Pad25)*%
X134250000Y-94935000D03*
%TO.P,U1,26,D14_26*%
%TO.N,unconnected-(U1-D14-Pad26)*%
X134250000Y-92395000D03*
%TO.P,U1,27,D12_27*%
%TO.N,unconnected-(U1-D12-Pad27)*%
X134250000Y-89855000D03*
%TO.P,U1,28,D13_28*%
%TO.N,Net-(J1-Pin_1)*%
X134250000Y-87315000D03*
%TO.P,U1,29,GND_29*%
%TO.N,GND*%
X134250000Y-84775000D03*
%TO.P,U1,30,VIN_30*%
%TO.N,Net-(U1-VIN)*%
X134250000Y-82235000D03*
%TD*%
D19*
%TO.N,GND*%
X104000000Y-90500000D03*
X146500000Y-80000000D03*
X104500000Y-86500000D03*
X143000000Y-85000000D03*
X140000000Y-83500000D03*
X119000000Y-86000000D03*
X96000000Y-73500000D03*
X144000000Y-86000000D03*
%TO.N,Net-(J1-Pin_2)*%
X137500000Y-83500000D03*
X113500000Y-82000000D03*
X137500000Y-88300000D03*
X137500000Y-91500000D03*
%TO.N,Net-(J1-Pin_1)*%
X142500000Y-99000000D03*
X144217500Y-97282500D03*
%TO.N,Net-(J2-Pin_1)*%
X106888235Y-85888235D03*
%TO.N,Net-(J5-Pin_4)*%
X97500000Y-117500000D03*
%TO.N,Net-(J4-Pin_3)*%
X102500000Y-78000000D03*
X115000000Y-78000000D03*
%TD*%
%TO.N,GND*%
D20*
X154000000Y-111500000D02*
X154000000Y-94500000D01*
D21*
X158300000Y-79800000D02*
X146700000Y-79800000D01*
D20*
X104000000Y-102500000D02*
X104000000Y-90500000D01*
X149700000Y-90200000D02*
X148200000Y-90200000D01*
X94500000Y-72000000D02*
X96000000Y-73500000D01*
X90000000Y-72000000D02*
X94500000Y-72000000D01*
D21*
X146700000Y-79800000D02*
X146500000Y-80000000D01*
D20*
X95500000Y-111000000D02*
X104000000Y-102500000D01*
X148200000Y-96500000D02*
X148200000Y-90200000D01*
D21*
X120725000Y-84775000D02*
X119500000Y-86000000D01*
D20*
X141500000Y-83500000D02*
X140000000Y-83500000D01*
X89500000Y-111000000D02*
X95500000Y-111000000D01*
X89500000Y-92500000D02*
X98500000Y-92500000D01*
X154000000Y-94500000D02*
X149700000Y-90200000D01*
X143000000Y-85000000D02*
X141500000Y-83500000D01*
X148000000Y-117500000D02*
X154000000Y-111500000D01*
D21*
X119500000Y-86000000D02*
X119000000Y-86000000D01*
D20*
X148200000Y-90200000D02*
X144000000Y-86000000D01*
D21*
X134250000Y-84775000D02*
X120725000Y-84775000D01*
X161000000Y-82500000D02*
X158300000Y-79800000D01*
D20*
X98500000Y-92500000D02*
X104500000Y-86500000D01*
%TO.N,Net-(U1-VIN)*%
D21*
X134515000Y-82500000D02*
X134250000Y-82235000D01*
X155000000Y-82500000D02*
X134515000Y-82500000D01*
%TO.N,Net-(J1-Pin_2)*%
D20*
X100000000Y-90000000D02*
X107765000Y-82235000D01*
X113265000Y-82235000D02*
X108850000Y-82235000D01*
X148200000Y-99000000D02*
X137500000Y-88300000D01*
X149475000Y-104884744D02*
X137500000Y-92909744D01*
X90000000Y-74500000D02*
X101115000Y-74500000D01*
X105500000Y-85585000D02*
X108850000Y-82235000D01*
X148000000Y-115000000D02*
X149475000Y-113525000D01*
X137500000Y-92909744D02*
X137500000Y-91500000D01*
X107765000Y-82235000D02*
X108850000Y-82235000D01*
X96000000Y-113500000D02*
X105500000Y-104000000D01*
X105500000Y-104000000D02*
X105500000Y-85585000D01*
X89500000Y-113500000D02*
X96000000Y-113500000D01*
X89500000Y-90000000D02*
X100000000Y-90000000D01*
X101115000Y-74500000D02*
X108850000Y-82235000D01*
X113500000Y-82000000D02*
X113265000Y-82235000D01*
X137500000Y-92909744D02*
X138675000Y-94084744D01*
X137500000Y-88300000D02*
X137500000Y-83500000D01*
X149475000Y-113525000D02*
X149475000Y-104884744D01*
X138675000Y-94084744D02*
X138675000Y-101000000D01*
%TO.N,Net-(J1-Pin_1)*%
X148200000Y-101500000D02*
X148200000Y-101265000D01*
X140325000Y-101000000D02*
X140500000Y-101000000D01*
X148200000Y-101265000D02*
X144217500Y-97282500D01*
X140500000Y-101000000D02*
X142500000Y-99000000D01*
X144217500Y-97282500D02*
X134250000Y-87315000D01*
%TO.N,Net-(J2-Pin_1)*%
X108850000Y-87315000D02*
X107423235Y-85888235D01*
X107423235Y-85888235D02*
X106888235Y-85888235D01*
%TO.N,Net-(J5-Pin_3)*%
X90745000Y-115255000D02*
X108850000Y-115255000D01*
X90000000Y-116000000D02*
X90745000Y-115255000D01*
X89500000Y-116000000D02*
X90000000Y-116000000D01*
%TO.N,Net-(J5-Pin_4)*%
X96500000Y-118500000D02*
X97500000Y-117500000D01*
X89500000Y-118500000D02*
X96500000Y-118500000D01*
%TO.N,Net-(J3-Pin_3)*%
X139115000Y-112500000D02*
X134250000Y-107635000D01*
X148000000Y-112500000D02*
X139115000Y-112500000D01*
%TO.N,Net-(J4-Pin_3)*%
X131500000Y-101000000D02*
X131500000Y-107425000D01*
X90000000Y-77000000D02*
X92100000Y-74900000D01*
X131500000Y-107425000D02*
X134250000Y-110175000D01*
X115000000Y-78000000D02*
X115000000Y-84500000D01*
X99400000Y-74900000D02*
X102500000Y-78000000D01*
X115000000Y-84500000D02*
X131500000Y-101000000D01*
X92100000Y-74900000D02*
X99400000Y-74900000D01*
%TD*%
%TA.AperFunction,NonConductor*%
G36*
X165876482Y-65498563D02*
G01*
X165943286Y-65519026D01*
X165988424Y-65572358D01*
X165999034Y-65623524D01*
X165500972Y-129375521D01*
X165480765Y-129442404D01*
X165427605Y-129487745D01*
X165375526Y-129498544D01*
X80122550Y-128501433D01*
X80055745Y-128480965D01*
X80010611Y-128427630D01*
X80000000Y-128377441D01*
X80000000Y-123225000D01*
X112640000Y-123225000D01*
X130330000Y-123225000D01*
X130330000Y-116735000D01*
X112640000Y-116735000D01*
X112640000Y-123225000D01*
X80000000Y-123225000D01*
X80000000Y-86849983D01*
X88024500Y-86849983D01*
X88024500Y-88150001D01*
X88024501Y-88150018D01*
X88035000Y-88252796D01*
X88035001Y-88252799D01*
X88080653Y-88390566D01*
X88090186Y-88419334D01*
X88182288Y-88568656D01*
X88306344Y-88692712D01*
X88368845Y-88731263D01*
X88461120Y-88788178D01*
X88507845Y-88840126D01*
X88519068Y-88909088D01*
X88491224Y-88973171D01*
X88483706Y-88981398D01*
X88344889Y-89120215D01*
X88219951Y-89292179D01*
X88123444Y-89481585D01*
X88057753Y-89683760D01*
X88033268Y-89838352D01*
X88024500Y-89893713D01*
X88024500Y-90106287D01*
X88057754Y-90316243D01*
X88100803Y-90448735D01*
X88123444Y-90518414D01*
X88219951Y-90707820D01*
X88344890Y-90879786D01*
X88495209Y-91030105D01*
X88495214Y-91030109D01*
X88659793Y-91149682D01*
X88702459Y-91205011D01*
X88708438Y-91274625D01*
X88675833Y-91336420D01*
X88659793Y-91350318D01*
X88495214Y-91469890D01*
X88495209Y-91469894D01*
X88344890Y-91620213D01*
X88219951Y-91792179D01*
X88123444Y-91981585D01*
X88057753Y-92183760D01*
X88050997Y-92226416D01*
X88024500Y-92393713D01*
X88024500Y-92606287D01*
X88057754Y-92816243D01*
X88108035Y-92970992D01*
X88123444Y-93018414D01*
X88219951Y-93207820D01*
X88344890Y-93379786D01*
X88495213Y-93530109D01*
X88667179Y-93655048D01*
X88667181Y-93655049D01*
X88667184Y-93655051D01*
X88856588Y-93751557D01*
X89058757Y-93817246D01*
X89268713Y-93850500D01*
X89268714Y-93850500D01*
X89731286Y-93850500D01*
X89731287Y-93850500D01*
X89941243Y-93817246D01*
X90143412Y-93751557D01*
X90332816Y-93655051D01*
X90402777Y-93604222D01*
X90504786Y-93530109D01*
X90504788Y-93530106D01*
X90504792Y-93530104D01*
X90655104Y-93379792D01*
X90655106Y-93379788D01*
X90655109Y-93379786D01*
X90728728Y-93278456D01*
X90780051Y-93207816D01*
X90780349Y-93207230D01*
X90800235Y-93168205D01*
X90848209Y-93117409D01*
X90910719Y-93100500D01*
X98413331Y-93100500D01*
X98413347Y-93100501D01*
X98420943Y-93100501D01*
X98579054Y-93100501D01*
X98579057Y-93100501D01*
X98731785Y-93059577D01*
X98781904Y-93030639D01*
X98868716Y-92980520D01*
X98980520Y-92868716D01*
X98980520Y-92868714D01*
X98990728Y-92858507D01*
X98990729Y-92858504D01*
X104514662Y-87334572D01*
X104530887Y-87325713D01*
X104544102Y-87312783D01*
X104574282Y-87302017D01*
X104575983Y-87301089D01*
X104577303Y-87300809D01*
X104578802Y-87300500D01*
X104578842Y-87300500D01*
X104733497Y-87269737D01*
X104738930Y-87267486D01*
X104750462Y-87265109D01*
X104773939Y-87267045D01*
X104797359Y-87264497D01*
X104808115Y-87269863D01*
X104820095Y-87270852D01*
X104838799Y-87285173D01*
X104859878Y-87295691D01*
X104866024Y-87306020D01*
X104875570Y-87313329D01*
X104883563Y-87335492D01*
X104895608Y-87355734D01*
X104898164Y-87375982D01*
X104899273Y-87379055D01*
X104898808Y-87381082D01*
X104899500Y-87386555D01*
X104899500Y-89996560D01*
X104879815Y-90063599D01*
X104827011Y-90109354D01*
X104757853Y-90119298D01*
X104694297Y-90090273D01*
X104672398Y-90065451D01*
X104621789Y-89989711D01*
X104621786Y-89989707D01*
X104510292Y-89878213D01*
X104510288Y-89878210D01*
X104379185Y-89790609D01*
X104379172Y-89790602D01*
X104233501Y-89730264D01*
X104233489Y-89730261D01*
X104078845Y-89699500D01*
X104078842Y-89699500D01*
X103921158Y-89699500D01*
X103921155Y-89699500D01*
X103766510Y-89730261D01*
X103766498Y-89730264D01*
X103620827Y-89790602D01*
X103620814Y-89790609D01*
X103489711Y-89878210D01*
X103489707Y-89878213D01*
X103378213Y-89989707D01*
X103378210Y-89989711D01*
X103290609Y-90120814D01*
X103290602Y-90120827D01*
X103230264Y-90266498D01*
X103230261Y-90266510D01*
X103199500Y-90421153D01*
X103199500Y-90578846D01*
X103230261Y-90733489D01*
X103230264Y-90733501D01*
X103290602Y-90879172D01*
X103290609Y-90879185D01*
X103378602Y-91010874D01*
X103399480Y-91077551D01*
X103399500Y-91079765D01*
X103399500Y-102199903D01*
X103379815Y-102266942D01*
X103363181Y-102287584D01*
X95287584Y-110363181D01*
X95226261Y-110396666D01*
X95199903Y-110399500D01*
X91092535Y-110399500D01*
X91025496Y-110379815D01*
X90979741Y-110327011D01*
X90969177Y-110288102D01*
X90968663Y-110283071D01*
X90964999Y-110247203D01*
X90909814Y-110080666D01*
X90817712Y-109931344D01*
X90693656Y-109807288D01*
X90544334Y-109715186D01*
X90377797Y-109660001D01*
X90377795Y-109660000D01*
X90275010Y-109649500D01*
X88724998Y-109649500D01*
X88724981Y-109649501D01*
X88622203Y-109660000D01*
X88622200Y-109660001D01*
X88455668Y-109715185D01*
X88455663Y-109715187D01*
X88306342Y-109807289D01*
X88182289Y-109931342D01*
X88090187Y-110080663D01*
X88090186Y-110080666D01*
X88035001Y-110247203D01*
X88035001Y-110247204D01*
X88035000Y-110247204D01*
X88024500Y-110349983D01*
X88024500Y-111650001D01*
X88024501Y-111650018D01*
X88035000Y-111752796D01*
X88035001Y-111752799D01*
X88083614Y-111899500D01*
X88090186Y-111919334D01*
X88134219Y-111990724D01*
X88182289Y-112068657D01*
X88306344Y-112192712D01*
X88461120Y-112288178D01*
X88507845Y-112340126D01*
X88519068Y-112409088D01*
X88491224Y-112473171D01*
X88483706Y-112481398D01*
X88344889Y-112620215D01*
X88219951Y-112792179D01*
X88123444Y-112981585D01*
X88057753Y-113183760D01*
X88024500Y-113393713D01*
X88024500Y-113606286D01*
X88056276Y-113806915D01*
X88057754Y-113816243D01*
X88122572Y-114015732D01*
X88123444Y-114018414D01*
X88219951Y-114207820D01*
X88344890Y-114379786D01*
X88495209Y-114530105D01*
X88495214Y-114530109D01*
X88659793Y-114649682D01*
X88702459Y-114705011D01*
X88708438Y-114774625D01*
X88675833Y-114836420D01*
X88659793Y-114850318D01*
X88495214Y-114969890D01*
X88495209Y-114969894D01*
X88344890Y-115120213D01*
X88219951Y-115292179D01*
X88123444Y-115481585D01*
X88057753Y-115683760D01*
X88024500Y-115893713D01*
X88024500Y-116106286D01*
X88056335Y-116307289D01*
X88057754Y-116316243D01*
X88117582Y-116500375D01*
X88123444Y-116518414D01*
X88219951Y-116707820D01*
X88344890Y-116879786D01*
X88495209Y-117030105D01*
X88495214Y-117030109D01*
X88659793Y-117149682D01*
X88702459Y-117205011D01*
X88708438Y-117274625D01*
X88675833Y-117336420D01*
X88659793Y-117350318D01*
X88495214Y-117469890D01*
X88495209Y-117469894D01*
X88344890Y-117620213D01*
X88219951Y-117792179D01*
X88123444Y-117981585D01*
X88057753Y-118183760D01*
X88024500Y-118393713D01*
X88024500Y-118606286D01*
X88052775Y-118784812D01*
X88057754Y-118816243D01*
X88097808Y-118939517D01*
X88123444Y-119018414D01*
X88219951Y-119207820D01*
X88344890Y-119379786D01*
X88495213Y-119530109D01*
X88667179Y-119655048D01*
X88667181Y-119655049D01*
X88667184Y-119655051D01*
X88856588Y-119751557D01*
X89058757Y-119817246D01*
X89268713Y-119850500D01*
X89268714Y-119850500D01*
X89731286Y-119850500D01*
X89731287Y-119850500D01*
X89941243Y-119817246D01*
X90143412Y-119751557D01*
X90332816Y-119655051D01*
X90354789Y-119639086D01*
X90504786Y-119530109D01*
X90504788Y-119530106D01*
X90504792Y-119530104D01*
X90655104Y-119379792D01*
X90655106Y-119379788D01*
X90655109Y-119379786D01*
X90735383Y-119269297D01*
X90780051Y-119207816D01*
X90780349Y-119207230D01*
X90800235Y-119168205D01*
X90848209Y-119117409D01*
X90910719Y-119100500D01*
X96413331Y-119100500D01*
X96413347Y-119100501D01*
X96420943Y-119100501D01*
X96579054Y-119100501D01*
X96579057Y-119100501D01*
X96731785Y-119059577D01*
X96781904Y-119030639D01*
X96868716Y-118980520D01*
X96980520Y-118868716D01*
X96980520Y-118868714D01*
X96990728Y-118858507D01*
X96990729Y-118858504D01*
X97514665Y-118334570D01*
X97575984Y-118301088D01*
X97578151Y-118300637D01*
X97578840Y-118300500D01*
X97578842Y-118300500D01*
X97733497Y-118269737D01*
X97879179Y-118209394D01*
X98010289Y-118121789D01*
X98121789Y-118010289D01*
X98209394Y-117879179D01*
X98269737Y-117733497D01*
X98300500Y-117578842D01*
X98300500Y-117421158D01*
X98300500Y-117421155D01*
X98300499Y-117421153D01*
X98275403Y-117294989D01*
X98269737Y-117266503D01*
X98250062Y-117219003D01*
X98209397Y-117120827D01*
X98209390Y-117120814D01*
X98121789Y-116989711D01*
X98121786Y-116989707D01*
X98010292Y-116878213D01*
X98010288Y-116878210D01*
X97879185Y-116790609D01*
X97879172Y-116790602D01*
X97733501Y-116730264D01*
X97733489Y-116730261D01*
X97578845Y-116699500D01*
X97578842Y-116699500D01*
X97421158Y-116699500D01*
X97421155Y-116699500D01*
X97266510Y-116730261D01*
X97266498Y-116730264D01*
X97120827Y-116790602D01*
X97120814Y-116790609D01*
X96989711Y-116878210D01*
X96989707Y-116878213D01*
X96878213Y-116989707D01*
X96878210Y-116989711D01*
X96790609Y-117120814D01*
X96790602Y-117120827D01*
X96730264Y-117266498D01*
X96730261Y-117266508D01*
X96699362Y-117421849D01*
X96666977Y-117483759D01*
X96665426Y-117485338D01*
X96287584Y-117863181D01*
X96226261Y-117896666D01*
X96199903Y-117899500D01*
X90910719Y-117899500D01*
X90843680Y-117879815D01*
X90800235Y-117831795D01*
X90780052Y-117792185D01*
X90780051Y-117792184D01*
X90655109Y-117620213D01*
X90504792Y-117469896D01*
X90468641Y-117443631D01*
X90340204Y-117350316D01*
X90297540Y-117294989D01*
X90291561Y-117225376D01*
X90324166Y-117163580D01*
X90340199Y-117149686D01*
X90504792Y-117030104D01*
X90655104Y-116879792D01*
X90655106Y-116879788D01*
X90655109Y-116879786D01*
X90780048Y-116707820D01*
X90780047Y-116707820D01*
X90780051Y-116707816D01*
X90876557Y-116518412D01*
X90942246Y-116316243D01*
X90975500Y-116106287D01*
X90975500Y-115979500D01*
X90995185Y-115912461D01*
X91047989Y-115866706D01*
X91099500Y-115855500D01*
X107395932Y-115855500D01*
X107462971Y-115875185D01*
X107506416Y-115923203D01*
X107566657Y-116041433D01*
X107705483Y-116232510D01*
X107872490Y-116399517D01*
X107907127Y-116424683D01*
X107949792Y-116480013D01*
X107955771Y-116549626D01*
X107923165Y-116611421D01*
X107907130Y-116625315D01*
X107889365Y-116638222D01*
X107872488Y-116650484D01*
X107705485Y-116817487D01*
X107705485Y-116817488D01*
X107705483Y-116817490D01*
X107661365Y-116878213D01*
X107566657Y-117008566D01*
X107459433Y-117219003D01*
X107386446Y-117443631D01*
X107349500Y-117676902D01*
X107349500Y-117913097D01*
X107386446Y-118146368D01*
X107459433Y-118370996D01*
X107484063Y-118419334D01*
X107566657Y-118581433D01*
X107705483Y-118772510D01*
X107872490Y-118939517D01*
X108063567Y-119078343D01*
X108162991Y-119129002D01*
X108274003Y-119185566D01*
X108274005Y-119185566D01*
X108274008Y-119185568D01*
X108394412Y-119224689D01*
X108498631Y-119258553D01*
X108731903Y-119295500D01*
X108765708Y-119295500D01*
X108832747Y-119315185D01*
X108878502Y-119367989D01*
X108888446Y-119437147D01*
X108859421Y-119500703D01*
X108800643Y-119538477D01*
X108797835Y-119539265D01*
X108740418Y-119554649D01*
X108706112Y-119563842D01*
X108494123Y-119651650D01*
X108494109Y-119651657D01*
X108295382Y-119766392D01*
X108113338Y-119906081D01*
X107951081Y-120068338D01*
X107811392Y-120250382D01*
X107696657Y-120449109D01*
X107696650Y-120449123D01*
X107608842Y-120661112D01*
X107549453Y-120882759D01*
X107549451Y-120882770D01*
X107519500Y-121110258D01*
X107519500Y-121339741D01*
X107544446Y-121529215D01*
X107549452Y-121567238D01*
X107549453Y-121567240D01*
X107608842Y-121788887D01*
X107696650Y-122000876D01*
X107696657Y-122000890D01*
X107811392Y-122199617D01*
X107951081Y-122381661D01*
X107951089Y-122381670D01*
X108113330Y-122543911D01*
X108113338Y-122543918D01*
X108295382Y-122683607D01*
X108295385Y-122683608D01*
X108295388Y-122683611D01*
X108494112Y-122798344D01*
X108494117Y-122798346D01*
X108494123Y-122798349D01*
X108585480Y-122836190D01*
X108706113Y-122886158D01*
X108927762Y-122945548D01*
X109155266Y-122975500D01*
X109155273Y-122975500D01*
X109384727Y-122975500D01*
X109384734Y-122975500D01*
X109612238Y-122945548D01*
X109833887Y-122886158D01*
X110045888Y-122798344D01*
X110244612Y-122683611D01*
X110426661Y-122543919D01*
X110426665Y-122543914D01*
X110426670Y-122543911D01*
X110588911Y-122381670D01*
X110588914Y-122381665D01*
X110588919Y-122381661D01*
X110728611Y-122199612D01*
X110843344Y-122000888D01*
X110931158Y-121788887D01*
X110990548Y-121567238D01*
X111020500Y-121339734D01*
X111020500Y-121110266D01*
X110990548Y-120882762D01*
X110931158Y-120661113D01*
X110843344Y-120449112D01*
X110728611Y-120250388D01*
X110728608Y-120250385D01*
X110728607Y-120250382D01*
X110588918Y-120068338D01*
X110588911Y-120068330D01*
X110426670Y-119906089D01*
X110426661Y-119906081D01*
X110244617Y-119766392D01*
X110045890Y-119651657D01*
X110045876Y-119651650D01*
X109833887Y-119563842D01*
X109612238Y-119504452D01*
X109574215Y-119499446D01*
X109384741Y-119474500D01*
X109384734Y-119474500D01*
X109319657Y-119474500D01*
X109252618Y-119454815D01*
X109206863Y-119402011D01*
X109196919Y-119332853D01*
X109225944Y-119269297D01*
X109281338Y-119232569D01*
X109425992Y-119185568D01*
X109636433Y-119078343D01*
X109827510Y-118939517D01*
X109994517Y-118772510D01*
X110133343Y-118581433D01*
X110240568Y-118370992D01*
X110313553Y-118146368D01*
X110317446Y-118121786D01*
X110350500Y-117913097D01*
X110350500Y-117676902D01*
X110313553Y-117443631D01*
X110240566Y-117219003D01*
X110144317Y-117030105D01*
X110133343Y-117008567D01*
X109994517Y-116817490D01*
X109827510Y-116650483D01*
X109786755Y-116620872D01*
X109781230Y-116615725D01*
X109767111Y-116591911D01*
X109750207Y-116569989D01*
X109749544Y-116562279D01*
X109745599Y-116555624D01*
X109746596Y-116527954D01*
X109744228Y-116500375D01*
X109747838Y-116493532D01*
X109748117Y-116485799D01*
X109763914Y-116463063D01*
X109776833Y-116438580D01*
X109787121Y-116429665D01*
X109787986Y-116428421D01*
X109789080Y-116427968D01*
X109792873Y-116424682D01*
X109827510Y-116399517D01*
X109994517Y-116232510D01*
X110133343Y-116041433D01*
X110240568Y-115830992D01*
X110313553Y-115606368D01*
X110350500Y-115373097D01*
X110350500Y-115136902D01*
X110313553Y-114903631D01*
X110249017Y-114705011D01*
X110240568Y-114679008D01*
X110240566Y-114679005D01*
X110240566Y-114679003D01*
X110164698Y-114530105D01*
X110133343Y-114468567D01*
X109994517Y-114277490D01*
X109827510Y-114110483D01*
X109792872Y-114085317D01*
X109750207Y-114029989D01*
X109744228Y-113960375D01*
X109776833Y-113898580D01*
X109792873Y-113884682D01*
X109827510Y-113859517D01*
X109994517Y-113692510D01*
X110133343Y-113501433D01*
X110240568Y-113290992D01*
X110313553Y-113066368D01*
X110327150Y-112980520D01*
X110350500Y-112833097D01*
X110350500Y-112596902D01*
X110313553Y-112363631D01*
X110279689Y-112259412D01*
X110240568Y-112139008D01*
X110240566Y-112139005D01*
X110240566Y-112139003D01*
X110184002Y-112027991D01*
X110133343Y-111928567D01*
X109994517Y-111737490D01*
X109827510Y-111570483D01*
X109792872Y-111545317D01*
X109750207Y-111489989D01*
X109744228Y-111420375D01*
X109776833Y-111358580D01*
X109792873Y-111344682D01*
X109827510Y-111319517D01*
X109994517Y-111152510D01*
X110133343Y-110961433D01*
X110240568Y-110750992D01*
X110313553Y-110526368D01*
X110336765Y-110379815D01*
X110350500Y-110293097D01*
X110350500Y-110056902D01*
X110313553Y-109823631D01*
X110260386Y-109660001D01*
X110240568Y-109599008D01*
X110240566Y-109599005D01*
X110240566Y-109599003D01*
X110133342Y-109388566D01*
X109994517Y-109197490D01*
X109827510Y-109030483D01*
X109792872Y-109005317D01*
X109750207Y-108949989D01*
X109744228Y-108880375D01*
X109776833Y-108818580D01*
X109792873Y-108804682D01*
X109827510Y-108779517D01*
X109994517Y-108612510D01*
X110133343Y-108421433D01*
X110240568Y-108210992D01*
X110313553Y-107986368D01*
X110344066Y-107793716D01*
X110350500Y-107753097D01*
X110350500Y-107516902D01*
X110313553Y-107283631D01*
X110270543Y-107151261D01*
X110240568Y-107059008D01*
X110240566Y-107059005D01*
X110240566Y-107059003D01*
X110133342Y-106848566D01*
X109994517Y-106657490D01*
X109827510Y-106490483D01*
X109792872Y-106465317D01*
X109750207Y-106409989D01*
X109744228Y-106340375D01*
X109776833Y-106278580D01*
X109792873Y-106264682D01*
X109827510Y-106239517D01*
X109994517Y-106072510D01*
X110133343Y-105881433D01*
X110240568Y-105670992D01*
X110313553Y-105446368D01*
X110350500Y-105213097D01*
X110350500Y-104976902D01*
X110313553Y-104743631D01*
X110240566Y-104519003D01*
X110133342Y-104308566D01*
X110113971Y-104281904D01*
X109994517Y-104117490D01*
X109827510Y-103950483D01*
X109792872Y-103925317D01*
X109750207Y-103869989D01*
X109744228Y-103800375D01*
X109776833Y-103738580D01*
X109792873Y-103724682D01*
X109827510Y-103699517D01*
X109994517Y-103532510D01*
X110133343Y-103341433D01*
X110240568Y-103130992D01*
X110313553Y-102906368D01*
X110350500Y-102673097D01*
X110350500Y-102436902D01*
X110313553Y-102203631D01*
X110240566Y-101979003D01*
X110164885Y-101830472D01*
X110133343Y-101768567D01*
X109994517Y-101577490D01*
X109827510Y-101410483D01*
X109792872Y-101385317D01*
X109750207Y-101329989D01*
X109744228Y-101260375D01*
X109776833Y-101198580D01*
X109792873Y-101184682D01*
X109827510Y-101159517D01*
X109994517Y-100992510D01*
X110133343Y-100801433D01*
X110240568Y-100590992D01*
X110313553Y-100366368D01*
X110323352Y-100304500D01*
X110350500Y-100133097D01*
X110350500Y-99896902D01*
X110313553Y-99663631D01*
X110240566Y-99439003D01*
X110133342Y-99228566D01*
X109994517Y-99037490D01*
X109827510Y-98870483D01*
X109792872Y-98845317D01*
X109750207Y-98789989D01*
X109744228Y-98720375D01*
X109776833Y-98658580D01*
X109792873Y-98644682D01*
X109827510Y-98619517D01*
X109994517Y-98452510D01*
X110133343Y-98261433D01*
X110240568Y-98050992D01*
X110313553Y-97826368D01*
X110318872Y-97792788D01*
X110350500Y-97593097D01*
X110350500Y-97356902D01*
X110313553Y-97123631D01*
X110279365Y-97018412D01*
X110240568Y-96899008D01*
X110240566Y-96899005D01*
X110240566Y-96899003D01*
X110133342Y-96688566D01*
X110113104Y-96660711D01*
X109994517Y-96497490D01*
X109827510Y-96330483D01*
X109792872Y-96305317D01*
X109750207Y-96249989D01*
X109744228Y-96180375D01*
X109776833Y-96118580D01*
X109792873Y-96104682D01*
X109827510Y-96079517D01*
X109994517Y-95912510D01*
X110133343Y-95721433D01*
X110240568Y-95510992D01*
X110313553Y-95286368D01*
X110335058Y-95150591D01*
X110350500Y-95053097D01*
X110350500Y-94816902D01*
X110313553Y-94583631D01*
X110279689Y-94479412D01*
X110240568Y-94359008D01*
X110240566Y-94359005D01*
X110240566Y-94359003D01*
X110133342Y-94148566D01*
X109994517Y-93957490D01*
X109827510Y-93790483D01*
X109792872Y-93765317D01*
X109750207Y-93709989D01*
X109744228Y-93640375D01*
X109776833Y-93578580D01*
X109792873Y-93564682D01*
X109827510Y-93539517D01*
X109994517Y-93372510D01*
X110133343Y-93181433D01*
X110240568Y-92970992D01*
X110313553Y-92746368D01*
X110321320Y-92697328D01*
X110350500Y-92513097D01*
X110350500Y-92276902D01*
X110313553Y-92043631D01*
X110279689Y-91939412D01*
X110240568Y-91819008D01*
X110240566Y-91819005D01*
X110240566Y-91819003D01*
X110184002Y-91707991D01*
X110133343Y-91608567D01*
X109994517Y-91417490D01*
X109827510Y-91250483D01*
X109792872Y-91225317D01*
X109750207Y-91169989D01*
X109744228Y-91100375D01*
X109776833Y-91038580D01*
X109792873Y-91024682D01*
X109827510Y-90999517D01*
X109994517Y-90832510D01*
X110133343Y-90641433D01*
X110240568Y-90430992D01*
X110313553Y-90206368D01*
X110350500Y-89973097D01*
X110350500Y-89736902D01*
X110313553Y-89503631D01*
X110273322Y-89379815D01*
X110240568Y-89279008D01*
X110240566Y-89279005D01*
X110240566Y-89279003D01*
X110159655Y-89120208D01*
X110133343Y-89068567D01*
X109994517Y-88877490D01*
X109827510Y-88710483D01*
X109792872Y-88685317D01*
X109750207Y-88629989D01*
X109744228Y-88560375D01*
X109776833Y-88498580D01*
X109792873Y-88484682D01*
X109827510Y-88459517D01*
X109994517Y-88292510D01*
X110133343Y-88101433D01*
X110240568Y-87890992D01*
X110313553Y-87666368D01*
X110313554Y-87666362D01*
X110350500Y-87433097D01*
X110350500Y-87196902D01*
X110313553Y-86963631D01*
X110260548Y-86800500D01*
X110240568Y-86739008D01*
X110240566Y-86739005D01*
X110240566Y-86739003D01*
X110133342Y-86528566D01*
X110120062Y-86510288D01*
X109994517Y-86337490D01*
X109827510Y-86170483D01*
X109792872Y-86145317D01*
X109750207Y-86089989D01*
X109744228Y-86020375D01*
X109776833Y-85958580D01*
X109792873Y-85944682D01*
X109827510Y-85919517D01*
X109994517Y-85752510D01*
X110133343Y-85561433D01*
X110240568Y-85350992D01*
X110313553Y-85126368D01*
X110350500Y-84893097D01*
X110350500Y-84656902D01*
X110313553Y-84423631D01*
X110273545Y-84300500D01*
X110240568Y-84199008D01*
X110240566Y-84199005D01*
X110240566Y-84199003D01*
X110155258Y-84031578D01*
X110133343Y-83988567D01*
X110043449Y-83864839D01*
X110019970Y-83799035D01*
X110035795Y-83730981D01*
X110084744Y-83683410D01*
X110084546Y-83683047D01*
X110085851Y-83682334D01*
X110085901Y-83682286D01*
X110086111Y-83682192D01*
X110092326Y-83678797D01*
X110092331Y-83678796D01*
X110207546Y-83592546D01*
X110293796Y-83477331D01*
X110344091Y-83342483D01*
X110350500Y-83282873D01*
X110350500Y-82959500D01*
X110370185Y-82892461D01*
X110422989Y-82846706D01*
X110474500Y-82835500D01*
X113178331Y-82835500D01*
X113178347Y-82835501D01*
X113185943Y-82835501D01*
X113344055Y-82835501D01*
X113344057Y-82835501D01*
X113458912Y-82804724D01*
X113491006Y-82800500D01*
X113578844Y-82800500D01*
X113578845Y-82800499D01*
X113733497Y-82769737D01*
X113879179Y-82709394D01*
X114010289Y-82621789D01*
X114121789Y-82510289D01*
X114172398Y-82434548D01*
X114226010Y-82389743D01*
X114295335Y-82381036D01*
X114358363Y-82411190D01*
X114395082Y-82470634D01*
X114399500Y-82503439D01*
X114399500Y-84413330D01*
X114399499Y-84413348D01*
X114399499Y-84579054D01*
X114399498Y-84579054D01*
X114399499Y-84579057D01*
X114440423Y-84731785D01*
X114440424Y-84731787D01*
X114440423Y-84731787D01*
X114446512Y-84742332D01*
X114446513Y-84742333D01*
X114519477Y-84868712D01*
X114519481Y-84868717D01*
X114638349Y-84987585D01*
X114638355Y-84987590D01*
X130863181Y-101212416D01*
X130896666Y-101273739D01*
X130899500Y-101300097D01*
X130899500Y-107338330D01*
X130899499Y-107338348D01*
X130899499Y-107504054D01*
X130899498Y-107504054D01*
X130940423Y-107656785D01*
X130969358Y-107706900D01*
X130969359Y-107706904D01*
X130969360Y-107706904D01*
X131019479Y-107793714D01*
X131019481Y-107793717D01*
X131138349Y-107912585D01*
X131138355Y-107912590D01*
X132797200Y-109571435D01*
X132830685Y-109632758D01*
X132827450Y-109697433D01*
X132786447Y-109823628D01*
X132749500Y-110056902D01*
X132749500Y-110293097D01*
X132786446Y-110526368D01*
X132859433Y-110750996D01*
X132966657Y-110961433D01*
X133105483Y-111152510D01*
X133272490Y-111319517D01*
X133307127Y-111344683D01*
X133349792Y-111400013D01*
X133355771Y-111469626D01*
X133323165Y-111531421D01*
X133307130Y-111545315D01*
X133289365Y-111558222D01*
X133272488Y-111570484D01*
X133105485Y-111737487D01*
X133105485Y-111737488D01*
X133105483Y-111737490D01*
X133065745Y-111792185D01*
X132966657Y-111928566D01*
X132859433Y-112139003D01*
X132786446Y-112363631D01*
X132749500Y-112596902D01*
X132749500Y-112833097D01*
X132786446Y-113066368D01*
X132859433Y-113290996D01*
X132938381Y-113445939D01*
X132966657Y-113501433D01*
X133105483Y-113692510D01*
X133272490Y-113859517D01*
X133307127Y-113884683D01*
X133349792Y-113940013D01*
X133355771Y-114009626D01*
X133323165Y-114071421D01*
X133307130Y-114085315D01*
X133289365Y-114098222D01*
X133272488Y-114110484D01*
X133105485Y-114277487D01*
X133105485Y-114277488D01*
X133105483Y-114277490D01*
X133045862Y-114359550D01*
X132966657Y-114468566D01*
X132859433Y-114679003D01*
X132786446Y-114903631D01*
X132749500Y-115136902D01*
X132749500Y-115373097D01*
X132786446Y-115606368D01*
X132859433Y-115830996D01*
X132960885Y-116030104D01*
X132966657Y-116041433D01*
X133105483Y-116232510D01*
X133272490Y-116399517D01*
X133307127Y-116424683D01*
X133349792Y-116480013D01*
X133355771Y-116549626D01*
X133323165Y-116611421D01*
X133307130Y-116625315D01*
X133289365Y-116638222D01*
X133272488Y-116650484D01*
X133105485Y-116817487D01*
X133105485Y-116817488D01*
X133105483Y-116817490D01*
X133061365Y-116878213D01*
X132966657Y-117008566D01*
X132859433Y-117219003D01*
X132786446Y-117443631D01*
X132749500Y-117676902D01*
X132749500Y-117913097D01*
X132786446Y-118146368D01*
X132859433Y-118370996D01*
X132884063Y-118419334D01*
X132966657Y-118581433D01*
X133105483Y-118772510D01*
X133272490Y-118939517D01*
X133463567Y-119078343D01*
X133562991Y-119129002D01*
X133674003Y-119185566D01*
X133674005Y-119185566D01*
X133674008Y-119185568D01*
X133818662Y-119232569D01*
X133876337Y-119272007D01*
X133903535Y-119336366D01*
X133891620Y-119405212D01*
X133844376Y-119456688D01*
X133780343Y-119474500D01*
X133665258Y-119474500D01*
X133449474Y-119502910D01*
X133437762Y-119504452D01*
X133344076Y-119529554D01*
X133216112Y-119563842D01*
X133004123Y-119651650D01*
X133004109Y-119651657D01*
X132805382Y-119766392D01*
X132623338Y-119906081D01*
X132461081Y-120068338D01*
X132321392Y-120250382D01*
X132206657Y-120449109D01*
X132206650Y-120449123D01*
X132118842Y-120661112D01*
X132059453Y-120882759D01*
X132059451Y-120882770D01*
X132029500Y-121110258D01*
X132029500Y-121339741D01*
X132054446Y-121529215D01*
X132059452Y-121567238D01*
X132059453Y-121567240D01*
X132118842Y-121788887D01*
X132206650Y-122000876D01*
X132206657Y-122000890D01*
X132321392Y-122199617D01*
X132461081Y-122381661D01*
X132461089Y-122381670D01*
X132623330Y-122543911D01*
X132623338Y-122543918D01*
X132805382Y-122683607D01*
X132805385Y-122683608D01*
X132805388Y-122683611D01*
X133004112Y-122798344D01*
X133004117Y-122798346D01*
X133004123Y-122798349D01*
X133095480Y-122836190D01*
X133216113Y-122886158D01*
X133437762Y-122945548D01*
X133665266Y-122975500D01*
X133665273Y-122975500D01*
X133894727Y-122975500D01*
X133894734Y-122975500D01*
X134122238Y-122945548D01*
X134343887Y-122886158D01*
X134555888Y-122798344D01*
X134754612Y-122683611D01*
X134936661Y-122543919D01*
X134936665Y-122543914D01*
X134936670Y-122543911D01*
X135098911Y-122381670D01*
X135098914Y-122381665D01*
X135098919Y-122381661D01*
X135238611Y-122199612D01*
X135353344Y-122000888D01*
X135441158Y-121788887D01*
X135500548Y-121567238D01*
X135530500Y-121339734D01*
X135530500Y-121110266D01*
X135500548Y-120882762D01*
X135441158Y-120661113D01*
X135353344Y-120449112D01*
X135238611Y-120250388D01*
X135238608Y-120250385D01*
X135238607Y-120250382D01*
X135098918Y-120068338D01*
X135098911Y-120068330D01*
X134936670Y-119906089D01*
X134936661Y-119906081D01*
X134754617Y-119766392D01*
X134555890Y-119651657D01*
X134555876Y-119651650D01*
X134343887Y-119563842D01*
X134252197Y-119539274D01*
X134192538Y-119502910D01*
X134162009Y-119440063D01*
X134170304Y-119370688D01*
X134214789Y-119316810D01*
X134281341Y-119295535D01*
X134284292Y-119295500D01*
X134368097Y-119295500D01*
X134601368Y-119258553D01*
X134681338Y-119232569D01*
X134825992Y-119185568D01*
X135036433Y-119078343D01*
X135227510Y-118939517D01*
X135394517Y-118772510D01*
X135533343Y-118581433D01*
X135640568Y-118370992D01*
X135713553Y-118146368D01*
X135717446Y-118121786D01*
X135750500Y-117913097D01*
X135750500Y-117676902D01*
X135713553Y-117443631D01*
X135640566Y-117219003D01*
X135544317Y-117030105D01*
X135533343Y-117008567D01*
X135394517Y-116817490D01*
X135227510Y-116650483D01*
X135192872Y-116625317D01*
X135150207Y-116569989D01*
X135144228Y-116500375D01*
X135176833Y-116438580D01*
X135192873Y-116424682D01*
X135227510Y-116399517D01*
X135394517Y-116232510D01*
X135533343Y-116041433D01*
X135640568Y-115830992D01*
X135713553Y-115606368D01*
X135750500Y-115373097D01*
X135750500Y-115136902D01*
X135713553Y-114903631D01*
X135649017Y-114705011D01*
X135640568Y-114679008D01*
X135640566Y-114679005D01*
X135640566Y-114679003D01*
X135564698Y-114530105D01*
X135533343Y-114468567D01*
X135394517Y-114277490D01*
X135227510Y-114110483D01*
X135192872Y-114085317D01*
X135150207Y-114029989D01*
X135144228Y-113960375D01*
X135176833Y-113898580D01*
X135192873Y-113884682D01*
X135227510Y-113859517D01*
X135394517Y-113692510D01*
X135533343Y-113501433D01*
X135640568Y-113290992D01*
X135713553Y-113066368D01*
X135727150Y-112980520D01*
X135750500Y-112833097D01*
X135750500Y-112596902D01*
X135713553Y-112363631D01*
X135679689Y-112259412D01*
X135640568Y-112139008D01*
X135640566Y-112139005D01*
X135640566Y-112139003D01*
X135584002Y-112027991D01*
X135533343Y-111928567D01*
X135394517Y-111737490D01*
X135227510Y-111570483D01*
X135192872Y-111545317D01*
X135150207Y-111489989D01*
X135144228Y-111420375D01*
X135176833Y-111358580D01*
X135192873Y-111344682D01*
X135227510Y-111319517D01*
X135394517Y-111152510D01*
X135533343Y-110961433D01*
X135640568Y-110750992D01*
X135713553Y-110526368D01*
X135736765Y-110379815D01*
X135750500Y-110293097D01*
X135750500Y-110284097D01*
X135770185Y-110217058D01*
X135822989Y-110171303D01*
X135892147Y-110161359D01*
X135955703Y-110190384D01*
X135962181Y-110196416D01*
X138630139Y-112864374D01*
X138630149Y-112864385D01*
X138634479Y-112868715D01*
X138634480Y-112868716D01*
X138746284Y-112980520D01*
X138833095Y-113030639D01*
X138833097Y-113030641D01*
X138871151Y-113052611D01*
X138883215Y-113059577D01*
X139035943Y-113100501D01*
X139035946Y-113100501D01*
X139201653Y-113100501D01*
X139201669Y-113100500D01*
X146589281Y-113100500D01*
X146656320Y-113120185D01*
X146699765Y-113168205D01*
X146719947Y-113207814D01*
X146719948Y-113207815D01*
X146844890Y-113379786D01*
X146995209Y-113530105D01*
X146995214Y-113530109D01*
X147159793Y-113649682D01*
X147202459Y-113705011D01*
X147208438Y-113774625D01*
X147175833Y-113836420D01*
X147159793Y-113850318D01*
X146995214Y-113969890D01*
X146995209Y-113969894D01*
X146844890Y-114120213D01*
X146719951Y-114292179D01*
X146623444Y-114481585D01*
X146623443Y-114481587D01*
X146623443Y-114481588D01*
X146602147Y-114547131D01*
X146557753Y-114683760D01*
X146524500Y-114893713D01*
X146524500Y-115106286D01*
X146553942Y-115292179D01*
X146557754Y-115316243D01*
X146576225Y-115373092D01*
X146623444Y-115518414D01*
X146719951Y-115707820D01*
X146844890Y-115879786D01*
X146983705Y-116018601D01*
X147017190Y-116079924D01*
X147012206Y-116149616D01*
X146970334Y-116205549D01*
X146961121Y-116211821D01*
X146806342Y-116307289D01*
X146682289Y-116431342D01*
X146590187Y-116580663D01*
X146590185Y-116580668D01*
X146575390Y-116625318D01*
X146535001Y-116747203D01*
X146535001Y-116747204D01*
X146535000Y-116747204D01*
X146524500Y-116849983D01*
X146524500Y-118150001D01*
X146524501Y-118150018D01*
X146535000Y-118252796D01*
X146535001Y-118252799D01*
X146551003Y-118301088D01*
X146590186Y-118419334D01*
X146682288Y-118568656D01*
X146806344Y-118692712D01*
X146955666Y-118784814D01*
X147122203Y-118839999D01*
X147224991Y-118850500D01*
X148775008Y-118850499D01*
X148877797Y-118839999D01*
X149044334Y-118784814D01*
X149193656Y-118692712D01*
X149317712Y-118568656D01*
X149409814Y-118419334D01*
X149464999Y-118252797D01*
X149475500Y-118150009D01*
X149475499Y-116925095D01*
X149495184Y-116858057D01*
X149511813Y-116837420D01*
X154358506Y-111990728D01*
X154358511Y-111990724D01*
X154368714Y-111980520D01*
X154368716Y-111980520D01*
X154480520Y-111868716D01*
X154559577Y-111731784D01*
X154594754Y-111600501D01*
X154600500Y-111579058D01*
X154600500Y-111420943D01*
X154600500Y-94420943D01*
X154577065Y-94333479D01*
X154572523Y-94316527D01*
X154572523Y-94316526D01*
X154559578Y-94268217D01*
X154559577Y-94268216D01*
X154559577Y-94268215D01*
X154530639Y-94218095D01*
X154480520Y-94131284D01*
X154368716Y-94019480D01*
X154368715Y-94019479D01*
X154364385Y-94015149D01*
X154364374Y-94015139D01*
X150187590Y-89838355D01*
X150187588Y-89838352D01*
X150068717Y-89719481D01*
X150068716Y-89719480D01*
X149981904Y-89669360D01*
X149981904Y-89669359D01*
X149981900Y-89669358D01*
X149931785Y-89640423D01*
X149779057Y-89599499D01*
X149620943Y-89599499D01*
X149613347Y-89599499D01*
X149613331Y-89599500D01*
X148500097Y-89599500D01*
X148433058Y-89579815D01*
X148412416Y-89563181D01*
X145731137Y-86881902D01*
X159749500Y-86881902D01*
X159749500Y-87118097D01*
X159786446Y-87351368D01*
X159859433Y-87575996D01*
X159957480Y-87768422D01*
X159966657Y-87786433D01*
X160105483Y-87977510D01*
X160272490Y-88144517D01*
X160463567Y-88283343D01*
X160562991Y-88334002D01*
X160674003Y-88390566D01*
X160674005Y-88390566D01*
X160674008Y-88390568D01*
X160762547Y-88419336D01*
X160898631Y-88463553D01*
X161131903Y-88500500D01*
X161131908Y-88500500D01*
X162868097Y-88500500D01*
X163101368Y-88463553D01*
X163113799Y-88459514D01*
X163325992Y-88390568D01*
X163536433Y-88283343D01*
X163727510Y-88144517D01*
X163894517Y-87977510D01*
X164033343Y-87786433D01*
X164140568Y-87575992D01*
X164213553Y-87351368D01*
X164250500Y-87118097D01*
X164250500Y-86881902D01*
X164213553Y-86648631D01*
X164153855Y-86464902D01*
X164140568Y-86424008D01*
X164140566Y-86424005D01*
X164140566Y-86424003D01*
X164081096Y-86307288D01*
X164033343Y-86213567D01*
X163894517Y-86022490D01*
X163727510Y-85855483D01*
X163536433Y-85716657D01*
X163325996Y-85609433D01*
X163101368Y-85536446D01*
X162868097Y-85499500D01*
X162868092Y-85499500D01*
X161131908Y-85499500D01*
X161131903Y-85499500D01*
X160898631Y-85536446D01*
X160674003Y-85609433D01*
X160463566Y-85716657D01*
X160382577Y-85775500D01*
X160272490Y-85855483D01*
X160272488Y-85855485D01*
X160272487Y-85855485D01*
X160105485Y-86022487D01*
X160105485Y-86022488D01*
X160105483Y-86022490D01*
X160064541Y-86078842D01*
X159966657Y-86213566D01*
X159859433Y-86424003D01*
X159786446Y-86648631D01*
X159749500Y-86881902D01*
X145731137Y-86881902D01*
X144834574Y-85985339D01*
X144801089Y-85924016D01*
X144800638Y-85921849D01*
X144772090Y-85778334D01*
X144769737Y-85766503D01*
X144709794Y-85621786D01*
X144709397Y-85620827D01*
X144709390Y-85620814D01*
X144621789Y-85489711D01*
X144621786Y-85489707D01*
X144510292Y-85378213D01*
X144510288Y-85378210D01*
X144379185Y-85290609D01*
X144379172Y-85290602D01*
X144233501Y-85230264D01*
X144233489Y-85230261D01*
X144078845Y-85199500D01*
X144078842Y-85199500D01*
X143924500Y-85199500D01*
X143857461Y-85179815D01*
X143811706Y-85127011D01*
X143800500Y-85075500D01*
X143800500Y-84921155D01*
X143800499Y-84921153D01*
X143790069Y-84868717D01*
X143769737Y-84766503D01*
X143759725Y-84742331D01*
X143709397Y-84620827D01*
X143709390Y-84620814D01*
X143621789Y-84489711D01*
X143621786Y-84489707D01*
X143510292Y-84378213D01*
X143510288Y-84378210D01*
X143379185Y-84290609D01*
X143379172Y-84290602D01*
X143233501Y-84230264D01*
X143233491Y-84230261D01*
X143078149Y-84199361D01*
X143016238Y-84166976D01*
X143014660Y-84165425D01*
X142561416Y-83712181D01*
X142527931Y-83650858D01*
X142532915Y-83581166D01*
X142574787Y-83525233D01*
X142640251Y-83500816D01*
X142649097Y-83500500D01*
X153375501Y-83500500D01*
X153442540Y-83520185D01*
X153488295Y-83572989D01*
X153499501Y-83624500D01*
X153499501Y-84547876D01*
X153505908Y-84607483D01*
X153556202Y-84742328D01*
X153556205Y-84742333D01*
X153642452Y-84857544D01*
X153642455Y-84857547D01*
X153757664Y-84943793D01*
X153757671Y-84943797D01*
X153892517Y-84994091D01*
X153892516Y-84994091D01*
X153899444Y-84994835D01*
X153952127Y-85000500D01*
X156047872Y-85000499D01*
X156107483Y-84994091D01*
X156242331Y-84943796D01*
X156357546Y-84857546D01*
X156443796Y-84742331D01*
X156494091Y-84607483D01*
X156500500Y-84547873D01*
X156500499Y-80924499D01*
X156520184Y-80857461D01*
X156572988Y-80811706D01*
X156624499Y-80800500D01*
X157834218Y-80800500D01*
X157901257Y-80820185D01*
X157921899Y-80836819D01*
X159463181Y-82378101D01*
X159496666Y-82439424D01*
X159499500Y-82465782D01*
X159499500Y-83268097D01*
X159536446Y-83501368D01*
X159609433Y-83725996D01*
X159692168Y-83888371D01*
X159716657Y-83936433D01*
X159855483Y-84127510D01*
X160022490Y-84294517D01*
X160213567Y-84433343D01*
X160312991Y-84484002D01*
X160424003Y-84540566D01*
X160424005Y-84540566D01*
X160424008Y-84540568D01*
X160518136Y-84571152D01*
X160648631Y-84613553D01*
X160881903Y-84650500D01*
X160881908Y-84650500D01*
X161118097Y-84650500D01*
X161351368Y-84613553D01*
X161370049Y-84607483D01*
X161575992Y-84540568D01*
X161786433Y-84433343D01*
X161977510Y-84294517D01*
X162144517Y-84127510D01*
X162283343Y-83936433D01*
X162390568Y-83725992D01*
X162463553Y-83501368D01*
X162466787Y-83480947D01*
X162500500Y-83268097D01*
X162500500Y-82396530D01*
X162949500Y-82396530D01*
X162949500Y-82603469D01*
X162989868Y-82806412D01*
X162989870Y-82806420D01*
X163069058Y-82997596D01*
X163184024Y-83169657D01*
X163330342Y-83315975D01*
X163330345Y-83315977D01*
X163502402Y-83430941D01*
X163693580Y-83510130D01*
X163896530Y-83550499D01*
X163896534Y-83550500D01*
X163896535Y-83550500D01*
X164103466Y-83550500D01*
X164103467Y-83550499D01*
X164306420Y-83510130D01*
X164497598Y-83430941D01*
X164669655Y-83315977D01*
X164815977Y-83169655D01*
X164930941Y-82997598D01*
X165010130Y-82806420D01*
X165050500Y-82603465D01*
X165050500Y-82396535D01*
X165010130Y-82193580D01*
X164930941Y-82002402D01*
X164815977Y-81830345D01*
X164815975Y-81830342D01*
X164669657Y-81684024D01*
X164575066Y-81620821D01*
X164497598Y-81569059D01*
X164484416Y-81563599D01*
X164306420Y-81489870D01*
X164306412Y-81489868D01*
X164103469Y-81449500D01*
X164103465Y-81449500D01*
X163896535Y-81449500D01*
X163896530Y-81449500D01*
X163693587Y-81489868D01*
X163693579Y-81489870D01*
X163502403Y-81569058D01*
X163330342Y-81684024D01*
X163184024Y-81830342D01*
X163069058Y-82002403D01*
X162989870Y-82193579D01*
X162989868Y-82193587D01*
X162949500Y-82396530D01*
X162500500Y-82396530D01*
X162500500Y-81731902D01*
X162463553Y-81498631D01*
X162395961Y-81290606D01*
X162390568Y-81274008D01*
X162390566Y-81274005D01*
X162390566Y-81274003D01*
X162315927Y-81127517D01*
X162283343Y-81063567D01*
X162144517Y-80872490D01*
X161977510Y-80705483D01*
X161786433Y-80566657D01*
X161575996Y-80459433D01*
X161351368Y-80386446D01*
X161118097Y-80349500D01*
X161118092Y-80349500D01*
X160881908Y-80349500D01*
X160881903Y-80349500D01*
X160648630Y-80386447D01*
X160648627Y-80386447D01*
X160458797Y-80448127D01*
X160388956Y-80450122D01*
X160332798Y-80417877D01*
X159084209Y-79169289D01*
X159084206Y-79169285D01*
X159084206Y-79169286D01*
X159077139Y-79162219D01*
X159077139Y-79162218D01*
X158937782Y-79022861D01*
X158937781Y-79022860D01*
X158937780Y-79022859D01*
X158773920Y-78913371D01*
X158773911Y-78913366D01*
X158701315Y-78883296D01*
X158645165Y-78860038D01*
X158591836Y-78837949D01*
X158591832Y-78837948D01*
X158591828Y-78837946D01*
X158495188Y-78818724D01*
X158398544Y-78799500D01*
X158398541Y-78799500D01*
X146601459Y-78799500D01*
X146601454Y-78799500D01*
X146569391Y-78805876D01*
X146569392Y-78805877D01*
X146408170Y-78837946D01*
X146408164Y-78837948D01*
X146317125Y-78875658D01*
X146226089Y-78913366D01*
X146153227Y-78962051D01*
X146062216Y-79022861D01*
X146062213Y-79022864D01*
X145722863Y-79362215D01*
X145722860Y-79362219D01*
X145613372Y-79526079D01*
X145613367Y-79526089D01*
X145537949Y-79708163D01*
X145537947Y-79708171D01*
X145499500Y-79901455D01*
X145499500Y-80098544D01*
X145537947Y-80291828D01*
X145537949Y-80291836D01*
X145613367Y-80473910D01*
X145613372Y-80473920D01*
X145722860Y-80637780D01*
X145722863Y-80637784D01*
X145862215Y-80777136D01*
X145862219Y-80777139D01*
X146026079Y-80886627D01*
X146026083Y-80886629D01*
X146026086Y-80886631D01*
X146208164Y-80962051D01*
X146362066Y-80992664D01*
X146401455Y-81000499D01*
X146401458Y-81000500D01*
X146401460Y-81000500D01*
X146598542Y-81000500D01*
X146598543Y-81000499D01*
X146791836Y-80962051D01*
X146973914Y-80886631D01*
X147071543Y-80821397D01*
X147138220Y-80800520D01*
X147140433Y-80800500D01*
X153375500Y-80800500D01*
X153442539Y-80820185D01*
X153488294Y-80872989D01*
X153499500Y-80924500D01*
X153499500Y-81375500D01*
X153479815Y-81442539D01*
X153427011Y-81488294D01*
X153375500Y-81499500D01*
X135633529Y-81499500D01*
X135566490Y-81479815D01*
X135533211Y-81448386D01*
X135528963Y-81442539D01*
X135394517Y-81257490D01*
X135227510Y-81090483D01*
X135036433Y-80951657D01*
X134825996Y-80844433D01*
X134601368Y-80771446D01*
X134368097Y-80734500D01*
X134368092Y-80734500D01*
X134131908Y-80734500D01*
X134131903Y-80734500D01*
X133898631Y-80771446D01*
X133674003Y-80844433D01*
X133463566Y-80951657D01*
X133354550Y-81030862D01*
X133272490Y-81090483D01*
X133272488Y-81090485D01*
X133272487Y-81090485D01*
X133105485Y-81257487D01*
X133105485Y-81257488D01*
X133105483Y-81257490D01*
X133093486Y-81274003D01*
X132966657Y-81448566D01*
X132859433Y-81659003D01*
X132786446Y-81883631D01*
X132749500Y-82116902D01*
X132749500Y-82353097D01*
X132786446Y-82586368D01*
X132859433Y-82810996D01*
X132954511Y-82997596D01*
X132966657Y-83021433D01*
X133105483Y-83212510D01*
X133272490Y-83379517D01*
X133307127Y-83404683D01*
X133319959Y-83421323D01*
X133336289Y-83434556D01*
X133340868Y-83448440D01*
X133349792Y-83460013D01*
X133351590Y-83480947D01*
X133358174Y-83500910D01*
X133354520Y-83515064D01*
X133355771Y-83529626D01*
X133345963Y-83548212D01*
X133340711Y-83568562D01*
X133327730Y-83582768D01*
X133323165Y-83591421D01*
X133318490Y-83595984D01*
X133313086Y-83600988D01*
X133272490Y-83630483D01*
X133163102Y-83739870D01*
X133161360Y-83741484D01*
X133132116Y-83756023D01*
X133103469Y-83771666D01*
X133099876Y-83772052D01*
X133098797Y-83772589D01*
X133096865Y-83772376D01*
X133077111Y-83774500D01*
X120829675Y-83774500D01*
X120829655Y-83774499D01*
X120823541Y-83774499D01*
X120626460Y-83774499D01*
X120626457Y-83774499D01*
X120433172Y-83812946D01*
X120433164Y-83812948D01*
X120251088Y-83888366D01*
X120251079Y-83888371D01*
X120087219Y-83997859D01*
X120087215Y-83997862D01*
X119121899Y-84963181D01*
X119060576Y-84996666D01*
X119034218Y-84999500D01*
X118901457Y-84999500D01*
X118708170Y-85037947D01*
X118708160Y-85037950D01*
X118526092Y-85113364D01*
X118526079Y-85113371D01*
X118362218Y-85222860D01*
X118362214Y-85222863D01*
X118222863Y-85362214D01*
X118222860Y-85362218D01*
X118113371Y-85526079D01*
X118113364Y-85526092D01*
X118037950Y-85708160D01*
X118037947Y-85708170D01*
X117999500Y-85901456D01*
X117999500Y-85901459D01*
X117999500Y-86098541D01*
X117999500Y-86098543D01*
X117999499Y-86098543D01*
X118037947Y-86291829D01*
X118037950Y-86291839D01*
X118080022Y-86393411D01*
X118087491Y-86462881D01*
X118056215Y-86525360D01*
X117996126Y-86561011D01*
X117926301Y-86558517D01*
X117877780Y-86528544D01*
X115636819Y-84287583D01*
X115603334Y-84226260D01*
X115600500Y-84199902D01*
X115600500Y-78579765D01*
X115620185Y-78512726D01*
X115621398Y-78510874D01*
X115709390Y-78379185D01*
X115709390Y-78379184D01*
X115709394Y-78379179D01*
X115769737Y-78233497D01*
X115800500Y-78078842D01*
X115800500Y-77921158D01*
X115800500Y-77921155D01*
X115796536Y-77901228D01*
X115796536Y-77901227D01*
X115792692Y-77881902D01*
X159749500Y-77881902D01*
X159749500Y-78118097D01*
X159786446Y-78351368D01*
X159859433Y-78575996D01*
X159927405Y-78709397D01*
X159966657Y-78786433D01*
X160105483Y-78977510D01*
X160272490Y-79144517D01*
X160463567Y-79283343D01*
X160562991Y-79334002D01*
X160674003Y-79390566D01*
X160674005Y-79390566D01*
X160674008Y-79390568D01*
X160794412Y-79429689D01*
X160898631Y-79463553D01*
X161131903Y-79500500D01*
X161131908Y-79500500D01*
X162868097Y-79500500D01*
X163101368Y-79463553D01*
X163325992Y-79390568D01*
X163536433Y-79283343D01*
X163727510Y-79144517D01*
X163894517Y-78977510D01*
X164033343Y-78786433D01*
X164140568Y-78575992D01*
X164213553Y-78351368D01*
X164218957Y-78317246D01*
X164250500Y-78118097D01*
X164250500Y-77881902D01*
X164213553Y-77648631D01*
X164140566Y-77424003D01*
X164072594Y-77290602D01*
X164033343Y-77213567D01*
X163894517Y-77022490D01*
X163727510Y-76855483D01*
X163536433Y-76716657D01*
X163325996Y-76609433D01*
X163101368Y-76536446D01*
X162868097Y-76499500D01*
X162868092Y-76499500D01*
X161131908Y-76499500D01*
X161131903Y-76499500D01*
X160898631Y-76536446D01*
X160674003Y-76609433D01*
X160463566Y-76716657D01*
X160354550Y-76795862D01*
X160272490Y-76855483D01*
X160272488Y-76855485D01*
X160272487Y-76855485D01*
X160105485Y-77022487D01*
X160105485Y-77022488D01*
X160105483Y-77022490D01*
X160072617Y-77067726D01*
X159966657Y-77213566D01*
X159859433Y-77424003D01*
X159786446Y-77648631D01*
X159749500Y-77881902D01*
X115792692Y-77881902D01*
X115769738Y-77766510D01*
X115769737Y-77766503D01*
X115720914Y-77648632D01*
X115709397Y-77620827D01*
X115709390Y-77620814D01*
X115621789Y-77489711D01*
X115621786Y-77489707D01*
X115510292Y-77378213D01*
X115510288Y-77378210D01*
X115379185Y-77290609D01*
X115379172Y-77290602D01*
X115233501Y-77230264D01*
X115233489Y-77230261D01*
X115078845Y-77199500D01*
X115078842Y-77199500D01*
X114921158Y-77199500D01*
X114921155Y-77199500D01*
X114766510Y-77230261D01*
X114766498Y-77230264D01*
X114620827Y-77290602D01*
X114620814Y-77290609D01*
X114489711Y-77378210D01*
X114489707Y-77378213D01*
X114378213Y-77489707D01*
X114378210Y-77489711D01*
X114290609Y-77620814D01*
X114290602Y-77620827D01*
X114230264Y-77766498D01*
X114230261Y-77766510D01*
X114199500Y-77921153D01*
X114199500Y-78078846D01*
X114230261Y-78233489D01*
X114230264Y-78233501D01*
X114290602Y-78379172D01*
X114290609Y-78379185D01*
X114378602Y-78510874D01*
X114399480Y-78577551D01*
X114399500Y-78579765D01*
X114399500Y-81496560D01*
X114379815Y-81563599D01*
X114327011Y-81609354D01*
X114257853Y-81619298D01*
X114194297Y-81590273D01*
X114172398Y-81565451D01*
X114121789Y-81489711D01*
X114121786Y-81489707D01*
X114010292Y-81378213D01*
X114010288Y-81378210D01*
X113879185Y-81290609D01*
X113879172Y-81290602D01*
X113733501Y-81230264D01*
X113733489Y-81230261D01*
X113578845Y-81199500D01*
X113578842Y-81199500D01*
X113421158Y-81199500D01*
X113421155Y-81199500D01*
X113266510Y-81230261D01*
X113266498Y-81230264D01*
X113120827Y-81290602D01*
X113120814Y-81290609D01*
X112989711Y-81378210D01*
X112989707Y-81378213D01*
X112878213Y-81489707D01*
X112878210Y-81489711D01*
X112818288Y-81579391D01*
X112764676Y-81624196D01*
X112715186Y-81634500D01*
X110474499Y-81634500D01*
X110407460Y-81614815D01*
X110361705Y-81562011D01*
X110350499Y-81510500D01*
X110350499Y-81187129D01*
X110350498Y-81187123D01*
X110344091Y-81127516D01*
X110293797Y-80992671D01*
X110293793Y-80992664D01*
X110207547Y-80877455D01*
X110207544Y-80877452D01*
X110092335Y-80791206D01*
X110092328Y-80791202D01*
X109957482Y-80740908D01*
X109957483Y-80740908D01*
X109897883Y-80734501D01*
X109897881Y-80734500D01*
X109897873Y-80734500D01*
X109897865Y-80734500D01*
X108250097Y-80734500D01*
X108183058Y-80714815D01*
X108162416Y-80698181D01*
X101624493Y-74160258D01*
X107519500Y-74160258D01*
X107519500Y-74389741D01*
X107544446Y-74579215D01*
X107549452Y-74617238D01*
X107549453Y-74617240D01*
X107608842Y-74838887D01*
X107696650Y-75050876D01*
X107696657Y-75050890D01*
X107739579Y-75125233D01*
X107799356Y-75228771D01*
X107811392Y-75249617D01*
X107951081Y-75431661D01*
X107951089Y-75431670D01*
X108113330Y-75593911D01*
X108113338Y-75593918D01*
X108295382Y-75733607D01*
X108295385Y-75733608D01*
X108295388Y-75733611D01*
X108494112Y-75848344D01*
X108494117Y-75848346D01*
X108494123Y-75848349D01*
X108585480Y-75886190D01*
X108706113Y-75936158D01*
X108927762Y-75995548D01*
X109155266Y-76025500D01*
X109155273Y-76025500D01*
X109384727Y-76025500D01*
X109384734Y-76025500D01*
X109612238Y-75995548D01*
X109833887Y-75936158D01*
X110045888Y-75848344D01*
X110244612Y-75733611D01*
X110426661Y-75593919D01*
X110426665Y-75593914D01*
X110426670Y-75593911D01*
X110588911Y-75431670D01*
X110588914Y-75431665D01*
X110588919Y-75431661D01*
X110728611Y-75249612D01*
X110843344Y-75050888D01*
X110931158Y-74838887D01*
X110990548Y-74617238D01*
X111020500Y-74389734D01*
X111020500Y-74160266D01*
X111020499Y-74160258D01*
X132029500Y-74160258D01*
X132029500Y-74389741D01*
X132054446Y-74579215D01*
X132059452Y-74617238D01*
X132059453Y-74617240D01*
X132118842Y-74838887D01*
X132206650Y-75050876D01*
X132206657Y-75050890D01*
X132249579Y-75125233D01*
X132309356Y-75228771D01*
X132321392Y-75249617D01*
X132461081Y-75431661D01*
X132461089Y-75431670D01*
X132623330Y-75593911D01*
X132623338Y-75593918D01*
X132805382Y-75733607D01*
X132805385Y-75733608D01*
X132805388Y-75733611D01*
X133004112Y-75848344D01*
X133004117Y-75848346D01*
X133004123Y-75848349D01*
X133095480Y-75886190D01*
X133216113Y-75936158D01*
X133437762Y-75995548D01*
X133665266Y-76025500D01*
X133665273Y-76025500D01*
X133894727Y-76025500D01*
X133894734Y-76025500D01*
X134122238Y-75995548D01*
X134343887Y-75936158D01*
X134555888Y-75848344D01*
X134754612Y-75733611D01*
X134936661Y-75593919D01*
X134936665Y-75593914D01*
X134936670Y-75593911D01*
X135098911Y-75431670D01*
X135098914Y-75431665D01*
X135098919Y-75431661D01*
X135238611Y-75249612D01*
X135353344Y-75050888D01*
X135441158Y-74838887D01*
X135500548Y-74617238D01*
X135530500Y-74389734D01*
X135530500Y-74160266D01*
X135500548Y-73932762D01*
X135441158Y-73711113D01*
X135373899Y-73548735D01*
X135353349Y-73499123D01*
X135353346Y-73499117D01*
X135353344Y-73499112D01*
X135238611Y-73300388D01*
X135238608Y-73300385D01*
X135238607Y-73300382D01*
X135100828Y-73120827D01*
X135098919Y-73118339D01*
X135098918Y-73118338D01*
X135098911Y-73118330D01*
X134936670Y-72956089D01*
X134936661Y-72956081D01*
X134754617Y-72816392D01*
X134555890Y-72701657D01*
X134555876Y-72701650D01*
X134343887Y-72613842D01*
X134294093Y-72600500D01*
X134122238Y-72554452D01*
X134084215Y-72549446D01*
X133894741Y-72524500D01*
X133894734Y-72524500D01*
X133665266Y-72524500D01*
X133665258Y-72524500D01*
X133448715Y-72553009D01*
X133437762Y-72554452D01*
X133344076Y-72579554D01*
X133216112Y-72613842D01*
X133004123Y-72701650D01*
X133004109Y-72701657D01*
X132805382Y-72816392D01*
X132623338Y-72956081D01*
X132461081Y-73118338D01*
X132321392Y-73300382D01*
X132206657Y-73499109D01*
X132206650Y-73499123D01*
X132118842Y-73711112D01*
X132106318Y-73757853D01*
X132068365Y-73899500D01*
X132059453Y-73932759D01*
X132059451Y-73932770D01*
X132029500Y-74160258D01*
X111020499Y-74160258D01*
X110990548Y-73932762D01*
X110931158Y-73711113D01*
X110863899Y-73548735D01*
X110843349Y-73499123D01*
X110843346Y-73499117D01*
X110843344Y-73499112D01*
X110728611Y-73300388D01*
X110728608Y-73300385D01*
X110728607Y-73300382D01*
X110590828Y-73120827D01*
X110588919Y-73118339D01*
X110588918Y-73118338D01*
X110588911Y-73118330D01*
X110426670Y-72956089D01*
X110426661Y-72956081D01*
X110244617Y-72816392D01*
X110045890Y-72701657D01*
X110045876Y-72701650D01*
X109833887Y-72613842D01*
X109784093Y-72600500D01*
X109612238Y-72554452D01*
X109574215Y-72549446D01*
X109384741Y-72524500D01*
X109384734Y-72524500D01*
X109155266Y-72524500D01*
X109155258Y-72524500D01*
X108938715Y-72553009D01*
X108927762Y-72554452D01*
X108834076Y-72579554D01*
X108706112Y-72613842D01*
X108494123Y-72701650D01*
X108494109Y-72701657D01*
X108295382Y-72816392D01*
X108113338Y-72956081D01*
X107951081Y-73118338D01*
X107811392Y-73300382D01*
X107696657Y-73499109D01*
X107696650Y-73499123D01*
X107608842Y-73711112D01*
X107596318Y-73757853D01*
X107558365Y-73899500D01*
X107549453Y-73932759D01*
X107549451Y-73932770D01*
X107519500Y-74160258D01*
X101624493Y-74160258D01*
X101602590Y-74138355D01*
X101602588Y-74138352D01*
X101483717Y-74019481D01*
X101483716Y-74019480D01*
X101396904Y-73969360D01*
X101396904Y-73969359D01*
X101396900Y-73969358D01*
X101346785Y-73940423D01*
X101194057Y-73899499D01*
X101035943Y-73899499D01*
X101028347Y-73899499D01*
X101028331Y-73899500D01*
X96886555Y-73899500D01*
X96819516Y-73879815D01*
X96773761Y-73827011D01*
X96763817Y-73757853D01*
X96768840Y-73739588D01*
X96767969Y-73739324D01*
X96769731Y-73733509D01*
X96769737Y-73733497D01*
X96800500Y-73578842D01*
X96800500Y-73421158D01*
X96800500Y-73421155D01*
X96800499Y-73421153D01*
X96785282Y-73344653D01*
X96769737Y-73266503D01*
X96739172Y-73192712D01*
X96709397Y-73120827D01*
X96709390Y-73120814D01*
X96621789Y-72989711D01*
X96621786Y-72989707D01*
X96510292Y-72878213D01*
X96510288Y-72878210D01*
X96379185Y-72790609D01*
X96379172Y-72790602D01*
X96233501Y-72730264D01*
X96233491Y-72730261D01*
X96078149Y-72699361D01*
X96016238Y-72666976D01*
X96014660Y-72665425D01*
X94987590Y-71638355D01*
X94987588Y-71638352D01*
X94868717Y-71519481D01*
X94868716Y-71519480D01*
X94781904Y-71469360D01*
X94781904Y-71469359D01*
X94781900Y-71469358D01*
X94731785Y-71440423D01*
X94579057Y-71399499D01*
X94420943Y-71399499D01*
X94413347Y-71399499D01*
X94413331Y-71399500D01*
X91592535Y-71399500D01*
X91525496Y-71379815D01*
X91479741Y-71327011D01*
X91469177Y-71288102D01*
X91468663Y-71283071D01*
X91464999Y-71247203D01*
X91409814Y-71080666D01*
X91317712Y-70931344D01*
X91193656Y-70807288D01*
X91044334Y-70715186D01*
X90877797Y-70660001D01*
X90877795Y-70660000D01*
X90775010Y-70649500D01*
X89224998Y-70649500D01*
X89224981Y-70649501D01*
X89122203Y-70660000D01*
X89122200Y-70660001D01*
X88955668Y-70715185D01*
X88955663Y-70715187D01*
X88806342Y-70807289D01*
X88682289Y-70931342D01*
X88590187Y-71080663D01*
X88590186Y-71080666D01*
X88535001Y-71247203D01*
X88535001Y-71247204D01*
X88535000Y-71247204D01*
X88524500Y-71349983D01*
X88524500Y-72650001D01*
X88524501Y-72650018D01*
X88535000Y-72752796D01*
X88535001Y-72752799D01*
X88590185Y-72919331D01*
X88590187Y-72919336D01*
X88682289Y-73068657D01*
X88806344Y-73192712D01*
X88961120Y-73288178D01*
X89007845Y-73340126D01*
X89019068Y-73409088D01*
X88991224Y-73473171D01*
X88983706Y-73481398D01*
X88844889Y-73620215D01*
X88719951Y-73792179D01*
X88623444Y-73981585D01*
X88557753Y-74183760D01*
X88525131Y-74389727D01*
X88524500Y-74393713D01*
X88524500Y-74606287D01*
X88526235Y-74617240D01*
X88557753Y-74816239D01*
X88623444Y-75018414D01*
X88719951Y-75207820D01*
X88844890Y-75379786D01*
X88995209Y-75530105D01*
X88995214Y-75530109D01*
X89159793Y-75649682D01*
X89202459Y-75705011D01*
X89208438Y-75774625D01*
X89175833Y-75836420D01*
X89159793Y-75850318D01*
X88995214Y-75969890D01*
X88995209Y-75969894D01*
X88844890Y-76120213D01*
X88719951Y-76292179D01*
X88623444Y-76481585D01*
X88557753Y-76683760D01*
X88524500Y-76893713D01*
X88524500Y-77106286D01*
X88541829Y-77215701D01*
X88557754Y-77316243D01*
X88614117Y-77489711D01*
X88623444Y-77518414D01*
X88719951Y-77707820D01*
X88844890Y-77879786D01*
X88995213Y-78030109D01*
X89167179Y-78155048D01*
X89167181Y-78155049D01*
X89167184Y-78155051D01*
X89356588Y-78251557D01*
X89558757Y-78317246D01*
X89768713Y-78350500D01*
X89768714Y-78350500D01*
X90231286Y-78350500D01*
X90231287Y-78350500D01*
X90441243Y-78317246D01*
X90643412Y-78251557D01*
X90832816Y-78155051D01*
X90937707Y-78078844D01*
X91004786Y-78030109D01*
X91004788Y-78030106D01*
X91004792Y-78030104D01*
X91155104Y-77879792D01*
X91155106Y-77879788D01*
X91155109Y-77879786D01*
X91280048Y-77707820D01*
X91280047Y-77707820D01*
X91280051Y-77707816D01*
X91376557Y-77518412D01*
X91442246Y-77316243D01*
X91475500Y-77106287D01*
X91475500Y-76893713D01*
X91442246Y-76683757D01*
X91397851Y-76547126D01*
X91395857Y-76477290D01*
X91428100Y-76421133D01*
X92312416Y-75536819D01*
X92373739Y-75503334D01*
X92400097Y-75500500D01*
X99099903Y-75500500D01*
X99166942Y-75520185D01*
X99187584Y-75536819D01*
X101665425Y-78014660D01*
X101698910Y-78075983D01*
X101699361Y-78078149D01*
X101730261Y-78233491D01*
X101730264Y-78233501D01*
X101790602Y-78379172D01*
X101790609Y-78379185D01*
X101878210Y-78510288D01*
X101878213Y-78510292D01*
X101989707Y-78621786D01*
X101989711Y-78621789D01*
X102120814Y-78709390D01*
X102120827Y-78709397D01*
X102266498Y-78769735D01*
X102266503Y-78769737D01*
X102416131Y-78799500D01*
X102421153Y-78800499D01*
X102421156Y-78800500D01*
X102421158Y-78800500D01*
X102578844Y-78800500D01*
X102578845Y-78800499D01*
X102733497Y-78769737D01*
X102879179Y-78709394D01*
X103010289Y-78621789D01*
X103121789Y-78510289D01*
X103209394Y-78379179D01*
X103269737Y-78233497D01*
X103300500Y-78078842D01*
X103300500Y-77921158D01*
X103300500Y-77921155D01*
X103284298Y-77839704D01*
X103290525Y-77770112D01*
X103333388Y-77714935D01*
X103399278Y-77691690D01*
X103467275Y-77707758D01*
X103493596Y-77727831D01*
X107313181Y-81547416D01*
X107327884Y-81574343D01*
X107344477Y-81600162D01*
X107345368Y-81606362D01*
X107346666Y-81608739D01*
X107349500Y-81635097D01*
X107349500Y-81749900D01*
X107329815Y-81816939D01*
X107313183Y-81837580D01*
X107284481Y-81866283D01*
X107284480Y-81866282D01*
X107284478Y-81866286D01*
X103528976Y-85621789D01*
X99787584Y-89363181D01*
X99726261Y-89396666D01*
X99699903Y-89399500D01*
X90910719Y-89399500D01*
X90843680Y-89379815D01*
X90800235Y-89331795D01*
X90780052Y-89292185D01*
X90780051Y-89292184D01*
X90655109Y-89120213D01*
X90516294Y-88981398D01*
X90482809Y-88920075D01*
X90487793Y-88850383D01*
X90529665Y-88794450D01*
X90538879Y-88788178D01*
X90544331Y-88784814D01*
X90544334Y-88784814D01*
X90693656Y-88692712D01*
X90817712Y-88568656D01*
X90909814Y-88419334D01*
X90964999Y-88252797D01*
X90975500Y-88150009D01*
X90975499Y-86849992D01*
X90970457Y-86800638D01*
X90964999Y-86747203D01*
X90964998Y-86747200D01*
X90962282Y-86739003D01*
X90909814Y-86580666D01*
X90817712Y-86431344D01*
X90693656Y-86307288D01*
X90544334Y-86215186D01*
X90377797Y-86160001D01*
X90377795Y-86160000D01*
X90275010Y-86149500D01*
X88724998Y-86149500D01*
X88724981Y-86149501D01*
X88622203Y-86160000D01*
X88622200Y-86160001D01*
X88455668Y-86215185D01*
X88455663Y-86215187D01*
X88306342Y-86307289D01*
X88182289Y-86431342D01*
X88090187Y-86580663D01*
X88090185Y-86580668D01*
X88068182Y-86647069D01*
X88035001Y-86747203D01*
X88035001Y-86747204D01*
X88035000Y-86747204D01*
X88024500Y-86849983D01*
X80000000Y-86849983D01*
X80000000Y-64625450D01*
X80019685Y-64558411D01*
X80072489Y-64512656D01*
X80125439Y-64501458D01*
X165876482Y-65498563D01*
G37*
%TD.AperFunction*%
%TA.AperFunction,NonConductor*%
G36*
X94266942Y-72620185D02*
G01*
X94287584Y-72636819D01*
X95165425Y-73514660D01*
X95198910Y-73575983D01*
X95199361Y-73578149D01*
X95230261Y-73733491D01*
X95232031Y-73739324D01*
X95229279Y-73740158D01*
X95235503Y-73797359D01*
X95204309Y-73859878D01*
X95144266Y-73895608D01*
X95113445Y-73899500D01*
X91410719Y-73899500D01*
X91343680Y-73879815D01*
X91300235Y-73831795D01*
X91280052Y-73792185D01*
X91280051Y-73792184D01*
X91155109Y-73620213D01*
X91016294Y-73481398D01*
X90982809Y-73420075D01*
X90987793Y-73350383D01*
X91029665Y-73294450D01*
X91038879Y-73288178D01*
X91044331Y-73284814D01*
X91044334Y-73284814D01*
X91193656Y-73192712D01*
X91317712Y-73068656D01*
X91409814Y-72919334D01*
X91464999Y-72752797D01*
X91469177Y-72711896D01*
X91495573Y-72647207D01*
X91552753Y-72607055D01*
X91592535Y-72600500D01*
X94199903Y-72600500D01*
X94266942Y-72620185D01*
G37*
%TD.AperFunction*%
%TA.AperFunction,NonConductor*%
G36*
X100881942Y-75120185D02*
G01*
X100902584Y-75136819D01*
X102772168Y-77006403D01*
X102805653Y-77067726D01*
X102800669Y-77137418D01*
X102758797Y-77193351D01*
X102693333Y-77217768D01*
X102660296Y-77215701D01*
X102578150Y-77199361D01*
X102516239Y-77166976D01*
X102514660Y-77165425D01*
X100661416Y-75312181D01*
X100650803Y-75292744D01*
X100636303Y-75276011D01*
X100634386Y-75262679D01*
X100627931Y-75250858D01*
X100629510Y-75228771D01*
X100626359Y-75206853D01*
X100631954Y-75194601D01*
X100632915Y-75181166D01*
X100646185Y-75163439D01*
X100655384Y-75143297D01*
X100666715Y-75136014D01*
X100674787Y-75125233D01*
X100695532Y-75117495D01*
X100714162Y-75105523D01*
X100736080Y-75102371D01*
X100740251Y-75100816D01*
X100749097Y-75100500D01*
X100814903Y-75100500D01*
X100881942Y-75120185D01*
G37*
%TD.AperFunction*%
%TA.AperFunction,NonConductor*%
G36*
X136612617Y-83509445D02*
G01*
X136643511Y-83516746D01*
X136645895Y-83519217D01*
X136649191Y-83520185D01*
X136669980Y-83544177D01*
X136692027Y-83567025D01*
X136693571Y-83571402D01*
X136694946Y-83572989D01*
X136703769Y-83600308D01*
X136730261Y-83733491D01*
X136730264Y-83733501D01*
X136790602Y-83879172D01*
X136790609Y-83879185D01*
X136878602Y-84010874D01*
X136899480Y-84077551D01*
X136899500Y-84079765D01*
X136899500Y-87720234D01*
X136879815Y-87787273D01*
X136878602Y-87789125D01*
X136790609Y-87920814D01*
X136790602Y-87920827D01*
X136730264Y-88066498D01*
X136730261Y-88066510D01*
X136699500Y-88221153D01*
X136699500Y-88378846D01*
X136730261Y-88533489D01*
X136730264Y-88533501D01*
X136783404Y-88661794D01*
X136790873Y-88731263D01*
X136759597Y-88793742D01*
X136699508Y-88829394D01*
X136629683Y-88826900D01*
X136581162Y-88796927D01*
X135702798Y-87918563D01*
X135669313Y-87857240D01*
X135672547Y-87792566D01*
X135713553Y-87666368D01*
X135733705Y-87539126D01*
X135750500Y-87433097D01*
X135750500Y-87196902D01*
X135713553Y-86963631D01*
X135660548Y-86800500D01*
X135640568Y-86739008D01*
X135640566Y-86739005D01*
X135640566Y-86739003D01*
X135533342Y-86528566D01*
X135520062Y-86510288D01*
X135394517Y-86337490D01*
X135227510Y-86170483D01*
X135192872Y-86145317D01*
X135150207Y-86089989D01*
X135144228Y-86020375D01*
X135176833Y-85958580D01*
X135192873Y-85944682D01*
X135227510Y-85919517D01*
X135394517Y-85752510D01*
X135533343Y-85561433D01*
X135640568Y-85350992D01*
X135713553Y-85126368D01*
X135750500Y-84893097D01*
X135750500Y-84656902D01*
X135713553Y-84423631D01*
X135673545Y-84300500D01*
X135640568Y-84199008D01*
X135640566Y-84199005D01*
X135640566Y-84199003D01*
X135555258Y-84031578D01*
X135533343Y-83988567D01*
X135394517Y-83797490D01*
X135309208Y-83712181D01*
X135275723Y-83650858D01*
X135280707Y-83581166D01*
X135322579Y-83525233D01*
X135388043Y-83500816D01*
X135396889Y-83500500D01*
X136582152Y-83500500D01*
X136612617Y-83509445D01*
G37*
%TD.AperFunction*%
%TA.AperFunction,NonConductor*%
G36*
X99317942Y-90620185D02*
G01*
X99363697Y-90672989D01*
X99373641Y-90742147D01*
X99344616Y-90805703D01*
X99338584Y-90812181D01*
X98287584Y-91863181D01*
X98226261Y-91896666D01*
X98199903Y-91899500D01*
X90910719Y-91899500D01*
X90843680Y-91879815D01*
X90800235Y-91831795D01*
X90780052Y-91792185D01*
X90780051Y-91792184D01*
X90655109Y-91620213D01*
X90504792Y-91469896D01*
X90437709Y-91421158D01*
X90340204Y-91350316D01*
X90297540Y-91294989D01*
X90291561Y-91225376D01*
X90324166Y-91163580D01*
X90340199Y-91149686D01*
X90504792Y-91030104D01*
X90655104Y-90879792D01*
X90655106Y-90879788D01*
X90655109Y-90879786D01*
X90755108Y-90742147D01*
X90780051Y-90707816D01*
X90780349Y-90707230D01*
X90800235Y-90668205D01*
X90848209Y-90617409D01*
X90910719Y-90600500D01*
X99250903Y-90600500D01*
X99317942Y-90620185D01*
G37*
%TD.AperFunction*%
%TA.AperFunction,NonConductor*%
G36*
X139149191Y-83520185D02*
G01*
X139194946Y-83572989D01*
X139203769Y-83600308D01*
X139230261Y-83733491D01*
X139230264Y-83733501D01*
X139290602Y-83879172D01*
X139290609Y-83879185D01*
X139378210Y-84010288D01*
X139378213Y-84010292D01*
X139489707Y-84121786D01*
X139489711Y-84121789D01*
X139620814Y-84209390D01*
X139620827Y-84209397D01*
X139766498Y-84269735D01*
X139766503Y-84269737D01*
X139891065Y-84294514D01*
X139921153Y-84300499D01*
X139921156Y-84300500D01*
X139921158Y-84300500D01*
X140078844Y-84300500D01*
X140078845Y-84300499D01*
X140233497Y-84269737D01*
X140379179Y-84209394D01*
X140393385Y-84199902D01*
X140510875Y-84121398D01*
X140577553Y-84100520D01*
X140579766Y-84100500D01*
X141199903Y-84100500D01*
X141266942Y-84120185D01*
X141287584Y-84136819D01*
X142165425Y-85014660D01*
X142198910Y-85075983D01*
X142199361Y-85078149D01*
X142230261Y-85233491D01*
X142230264Y-85233501D01*
X142290602Y-85379172D01*
X142290609Y-85379185D01*
X142378210Y-85510288D01*
X142378213Y-85510292D01*
X142489707Y-85621786D01*
X142489711Y-85621789D01*
X142620814Y-85709390D01*
X142620827Y-85709397D01*
X142758683Y-85766498D01*
X142766503Y-85769737D01*
X142894438Y-85795185D01*
X142921153Y-85800499D01*
X142921156Y-85800500D01*
X143075500Y-85800500D01*
X143142539Y-85820185D01*
X143188294Y-85872989D01*
X143199500Y-85924500D01*
X143199500Y-86078846D01*
X143230261Y-86233489D01*
X143230264Y-86233501D01*
X143290602Y-86379172D01*
X143290609Y-86379185D01*
X143378210Y-86510288D01*
X143378213Y-86510292D01*
X143489707Y-86621786D01*
X143489711Y-86621789D01*
X143620814Y-86709390D01*
X143620827Y-86709397D01*
X143712103Y-86747204D01*
X143766503Y-86769737D01*
X143831147Y-86782595D01*
X143921849Y-86800638D01*
X143983760Y-86833023D01*
X143985339Y-86834574D01*
X147563181Y-90412416D01*
X147596666Y-90473739D01*
X147599500Y-90500097D01*
X147599500Y-95150591D01*
X147579815Y-95217630D01*
X147531795Y-95261075D01*
X147482156Y-95286368D01*
X147367179Y-95344951D01*
X147195213Y-95469890D01*
X147044890Y-95620213D01*
X146919951Y-95792179D01*
X146823444Y-95981585D01*
X146757753Y-96183760D01*
X146724074Y-96396402D01*
X146694145Y-96459537D01*
X146634833Y-96496468D01*
X146564971Y-96495470D01*
X146513920Y-96464685D01*
X138334574Y-88285339D01*
X138301089Y-88224016D01*
X138300638Y-88221849D01*
X138269738Y-88066510D01*
X138269737Y-88066503D01*
X138232876Y-87977511D01*
X138209397Y-87920827D01*
X138209390Y-87920814D01*
X138121398Y-87789125D01*
X138100520Y-87722447D01*
X138100500Y-87720234D01*
X138100500Y-84079765D01*
X138120185Y-84012726D01*
X138121398Y-84010874D01*
X138209390Y-83879185D01*
X138209390Y-83879184D01*
X138209394Y-83879179D01*
X138269737Y-83733497D01*
X138280618Y-83678796D01*
X138296231Y-83600308D01*
X138328616Y-83538397D01*
X138389332Y-83503823D01*
X138417848Y-83500500D01*
X139082152Y-83500500D01*
X139149191Y-83520185D01*
G37*
%TD.AperFunction*%
%TA.AperFunction,NonConductor*%
G36*
X137094700Y-89009545D02*
G01*
X137104008Y-89007866D01*
X137138205Y-89016595D01*
X137262027Y-89067883D01*
X137266503Y-89069737D01*
X137331147Y-89082595D01*
X137421849Y-89100638D01*
X137483760Y-89133023D01*
X137485339Y-89134574D01*
X144714427Y-96363662D01*
X144747912Y-96424985D01*
X144742928Y-96494677D01*
X144701056Y-96550610D01*
X144635592Y-96575027D01*
X144579294Y-96565904D01*
X144451001Y-96512764D01*
X144450991Y-96512761D01*
X144295651Y-96481862D01*
X144233741Y-96449477D01*
X144232162Y-96447926D01*
X140642737Y-92858501D01*
X137003071Y-89218836D01*
X136997671Y-89208946D01*
X136988897Y-89201876D01*
X136981226Y-89178830D01*
X136969587Y-89157514D01*
X136970390Y-89146274D01*
X136966832Y-89135582D01*
X136972838Y-89112048D01*
X136974571Y-89087822D01*
X136981324Y-89078800D01*
X136984111Y-89067883D01*
X137001887Y-89051331D01*
X137016443Y-89031889D01*
X137026999Y-89027951D01*
X137035248Y-89020272D01*
X137059152Y-89015959D01*
X137081907Y-89007472D01*
X137094700Y-89009545D01*
G37*
%TD.AperFunction*%
%TA.AperFunction,NonConductor*%
G36*
X145087816Y-96755599D02*
G01*
X145136337Y-96785572D01*
X146771897Y-98421132D01*
X146805382Y-98482455D01*
X146802147Y-98547131D01*
X146757754Y-98683756D01*
X146756205Y-98693537D01*
X146726272Y-98756671D01*
X146666959Y-98793599D01*
X146597097Y-98792599D01*
X146546051Y-98761815D01*
X145052073Y-97267837D01*
X145018588Y-97206514D01*
X145018137Y-97204347D01*
X145002082Y-97123632D01*
X144987237Y-97049003D01*
X144934095Y-96920705D01*
X144926626Y-96851236D01*
X144957901Y-96788757D01*
X145017990Y-96753105D01*
X145087816Y-96755599D01*
G37*
%TD.AperFunction*%
%TA.AperFunction,NonConductor*%
G36*
X139480703Y-95740128D02*
G01*
X139487181Y-95746160D01*
X141966790Y-98225769D01*
X142000275Y-98287092D01*
X141995291Y-98356784D01*
X141966790Y-98401131D01*
X141878213Y-98489707D01*
X141878210Y-98489711D01*
X141790609Y-98620814D01*
X141790602Y-98620827D01*
X141730264Y-98766498D01*
X141730261Y-98766508D01*
X141699361Y-98921850D01*
X141666976Y-98983761D01*
X141665425Y-98985339D01*
X140662583Y-99988181D01*
X140601260Y-100021666D01*
X140574902Y-100024500D01*
X140068384Y-100024500D01*
X140049145Y-100026248D01*
X139997807Y-100030913D01*
X139835393Y-100081522D01*
X139689811Y-100169530D01*
X139689810Y-100169531D01*
X139587681Y-100271661D01*
X139579735Y-100275999D01*
X139574310Y-100283247D01*
X139549550Y-100292481D01*
X139526358Y-100305146D01*
X139517328Y-100304500D01*
X139508846Y-100307664D01*
X139483025Y-100302047D01*
X139456666Y-100300162D01*
X139447612Y-100294343D01*
X139440573Y-100292812D01*
X139412319Y-100271661D01*
X139311819Y-100171161D01*
X139278334Y-100109838D01*
X139275500Y-100083480D01*
X139275500Y-95833841D01*
X139295185Y-95766802D01*
X139347989Y-95721047D01*
X139417147Y-95711103D01*
X139480703Y-95740128D01*
G37*
%TD.AperFunction*%
%TA.AperFunction,NonConductor*%
G36*
X138305703Y-92220384D02*
G01*
X138312181Y-92226416D01*
X143382925Y-97297160D01*
X143416410Y-97358483D01*
X143416861Y-97360649D01*
X143447761Y-97515991D01*
X143447764Y-97516001D01*
X143508102Y-97661672D01*
X143508109Y-97661685D01*
X143595710Y-97792788D01*
X143595713Y-97792792D01*
X143707207Y-97904286D01*
X143707211Y-97904289D01*
X143838314Y-97991890D01*
X143838327Y-97991897D01*
X143980997Y-98050992D01*
X143984003Y-98052237D01*
X144048647Y-98065095D01*
X144139349Y-98083138D01*
X144201260Y-98115523D01*
X144202839Y-98117074D01*
X146705301Y-100619536D01*
X146738786Y-100680859D01*
X146735633Y-100740412D01*
X146736418Y-100740580D01*
X146735363Y-100745505D01*
X146735326Y-100746219D01*
X146735001Y-100747198D01*
X146724500Y-100849983D01*
X146724500Y-100985647D01*
X146704815Y-101052686D01*
X146652011Y-101098441D01*
X146582853Y-101108385D01*
X146519297Y-101079360D01*
X146512819Y-101073328D01*
X139155521Y-93716030D01*
X139155520Y-93716028D01*
X139043716Y-93604224D01*
X139043713Y-93604222D01*
X138136819Y-92697328D01*
X138103334Y-92636005D01*
X138100500Y-92609647D01*
X138100500Y-92314097D01*
X138120185Y-92247058D01*
X138172989Y-92201303D01*
X138242147Y-92191359D01*
X138305703Y-92220384D01*
G37*
%TD.AperFunction*%
%TA.AperFunction,NonConductor*%
G36*
X133144150Y-85795185D02*
G01*
X133164792Y-85811819D01*
X133272490Y-85919517D01*
X133307814Y-85945181D01*
X133308457Y-85945662D01*
X133328947Y-85972979D01*
X133349792Y-86000013D01*
X133349865Y-86000868D01*
X133350381Y-86001556D01*
X133352848Y-86035603D01*
X133355771Y-86069626D01*
X133355369Y-86070386D01*
X133355432Y-86071242D01*
X133339104Y-86101211D01*
X133323165Y-86131421D01*
X133322184Y-86132270D01*
X133322006Y-86132598D01*
X133321464Y-86132894D01*
X133307130Y-86145315D01*
X133301369Y-86149501D01*
X133272488Y-86170484D01*
X133105485Y-86337487D01*
X133105485Y-86337488D01*
X133105483Y-86337490D01*
X133075199Y-86379172D01*
X132966657Y-86528566D01*
X132859433Y-86739003D01*
X132786446Y-86963631D01*
X132749500Y-87196902D01*
X132749500Y-87433097D01*
X132786446Y-87666368D01*
X132859433Y-87890996D01*
X132903516Y-87977512D01*
X132966657Y-88101433D01*
X133105483Y-88292510D01*
X133272490Y-88459517D01*
X133307127Y-88484683D01*
X133349792Y-88540013D01*
X133355771Y-88609626D01*
X133323165Y-88671421D01*
X133307130Y-88685315D01*
X133289365Y-88698222D01*
X133272488Y-88710484D01*
X133105485Y-88877487D01*
X133105485Y-88877488D01*
X133105483Y-88877490D01*
X133082526Y-88909088D01*
X132966657Y-89068566D01*
X132859433Y-89279003D01*
X132786446Y-89503631D01*
X132749500Y-89736902D01*
X132749500Y-89973097D01*
X132786446Y-90206368D01*
X132859433Y-90430996D01*
X132954416Y-90617409D01*
X132966657Y-90641433D01*
X133105483Y-90832510D01*
X133272490Y-90999517D01*
X133307127Y-91024683D01*
X133349792Y-91080013D01*
X133355771Y-91149626D01*
X133323165Y-91211421D01*
X133307130Y-91225315D01*
X133307047Y-91225376D01*
X133272488Y-91250484D01*
X133105485Y-91417487D01*
X133105485Y-91417488D01*
X133105483Y-91417490D01*
X133067412Y-91469890D01*
X132966657Y-91608566D01*
X132859433Y-91819003D01*
X132786446Y-92043631D01*
X132749500Y-92276902D01*
X132749500Y-92513097D01*
X132786446Y-92746368D01*
X132859433Y-92970996D01*
X132925420Y-93100501D01*
X132966657Y-93181433D01*
X133105483Y-93372510D01*
X133272490Y-93539517D01*
X133307127Y-93564683D01*
X133349792Y-93620013D01*
X133355771Y-93689626D01*
X133323165Y-93751421D01*
X133307130Y-93765315D01*
X133289365Y-93778222D01*
X133272488Y-93790484D01*
X133105485Y-93957487D01*
X133105485Y-93957488D01*
X133105483Y-93957490D01*
X133045862Y-94039550D01*
X132966657Y-94148566D01*
X132859433Y-94359003D01*
X132786446Y-94583631D01*
X132749500Y-94816902D01*
X132749500Y-95053097D01*
X132786446Y-95286368D01*
X132859433Y-95510996D01*
X132961394Y-95711103D01*
X132966657Y-95721433D01*
X133105483Y-95912510D01*
X133272490Y-96079517D01*
X133307127Y-96104683D01*
X133349792Y-96160013D01*
X133355771Y-96229626D01*
X133323165Y-96291421D01*
X133307130Y-96305315D01*
X133289365Y-96318222D01*
X133272488Y-96330484D01*
X133105485Y-96497487D01*
X133105485Y-96497488D01*
X133105483Y-96497490D01*
X133094386Y-96512764D01*
X132966657Y-96688566D01*
X132859433Y-96899003D01*
X132786446Y-97123631D01*
X132749500Y-97356902D01*
X132749500Y-97593097D01*
X132786446Y-97826368D01*
X132859433Y-98050996D01*
X132948485Y-98225769D01*
X132966657Y-98261433D01*
X133105483Y-98452510D01*
X133272490Y-98619517D01*
X133307127Y-98644683D01*
X133349792Y-98700013D01*
X133355771Y-98769626D01*
X133323165Y-98831421D01*
X133307130Y-98845315D01*
X133289365Y-98858222D01*
X133272488Y-98870484D01*
X133105485Y-99037487D01*
X133105485Y-99037488D01*
X133105483Y-99037490D01*
X133055500Y-99106286D01*
X132966657Y-99228566D01*
X132859433Y-99439003D01*
X132786446Y-99663631D01*
X132749500Y-99896902D01*
X132749500Y-100133097D01*
X132786446Y-100366368D01*
X132859433Y-100590996D01*
X132949731Y-100768214D01*
X132966657Y-100801433D01*
X133105483Y-100992510D01*
X133272490Y-101159517D01*
X133307127Y-101184683D01*
X133349792Y-101240013D01*
X133355771Y-101309626D01*
X133323165Y-101371421D01*
X133307130Y-101385315D01*
X133289365Y-101398222D01*
X133272488Y-101410484D01*
X133105485Y-101577487D01*
X133105485Y-101577488D01*
X133105483Y-101577490D01*
X133045862Y-101659550D01*
X132966657Y-101768566D01*
X132859433Y-101979003D01*
X132786446Y-102203631D01*
X132749500Y-102436902D01*
X132749500Y-102673097D01*
X132786446Y-102906368D01*
X132859433Y-103130996D01*
X132966657Y-103341433D01*
X133105483Y-103532510D01*
X133272490Y-103699517D01*
X133307127Y-103724683D01*
X133349792Y-103780013D01*
X133355771Y-103849626D01*
X133323165Y-103911421D01*
X133307130Y-103925315D01*
X133289365Y-103938222D01*
X133272488Y-103950484D01*
X133105485Y-104117487D01*
X133105485Y-104117488D01*
X133105483Y-104117490D01*
X133045862Y-104199550D01*
X132966657Y-104308566D01*
X132859433Y-104519003D01*
X132786446Y-104743631D01*
X132749500Y-104976902D01*
X132749500Y-105213097D01*
X132786446Y-105446368D01*
X132859433Y-105670996D01*
X132966657Y-105881433D01*
X133105483Y-106072510D01*
X133272490Y-106239517D01*
X133307127Y-106264683D01*
X133349792Y-106320013D01*
X133355771Y-106389626D01*
X133323165Y-106451421D01*
X133307130Y-106465315D01*
X133289365Y-106478222D01*
X133272488Y-106490484D01*
X133105485Y-106657487D01*
X133105485Y-106657488D01*
X133105483Y-106657490D01*
X133045862Y-106739550D01*
X132966657Y-106848566D01*
X132859433Y-107059003D01*
X132786446Y-107283631D01*
X132749500Y-107516902D01*
X132749500Y-107525903D01*
X132729815Y-107592942D01*
X132677011Y-107638697D01*
X132607853Y-107648641D01*
X132544297Y-107619616D01*
X132537819Y-107613584D01*
X132136819Y-107212584D01*
X132103334Y-107151261D01*
X132100500Y-107124903D01*
X132100500Y-101089060D01*
X132100501Y-101089047D01*
X132100501Y-100920944D01*
X132081486Y-100849981D01*
X132059577Y-100768216D01*
X132046465Y-100745505D01*
X131980524Y-100631290D01*
X131980518Y-100631282D01*
X118471455Y-87122219D01*
X118437970Y-87060896D01*
X118442954Y-86991204D01*
X118484826Y-86935271D01*
X118550290Y-86910854D01*
X118606588Y-86919977D01*
X118708160Y-86962049D01*
X118708165Y-86962051D01*
X118708169Y-86962051D01*
X118708170Y-86962052D01*
X118901456Y-87000500D01*
X118901459Y-87000500D01*
X119598542Y-87000500D01*
X119645273Y-86991204D01*
X119695188Y-86981275D01*
X119791836Y-86962051D01*
X119845165Y-86939961D01*
X119973914Y-86886632D01*
X120137782Y-86777139D01*
X120277139Y-86637782D01*
X120277139Y-86637780D01*
X120287347Y-86627573D01*
X120287348Y-86627570D01*
X121103102Y-85811819D01*
X121164425Y-85778334D01*
X121190783Y-85775500D01*
X133077111Y-85775500D01*
X133144150Y-85795185D01*
G37*
%TD.AperFunction*%
%TA.AperFunction,NonConductor*%
G36*
X135955703Y-89870384D02*
G01*
X135962169Y-89876404D01*
X136402004Y-90316239D01*
X136889162Y-90803397D01*
X136922647Y-90864720D01*
X136917663Y-90934412D01*
X136889165Y-90978756D01*
X136878213Y-90989708D01*
X136878208Y-90989714D01*
X136790609Y-91120814D01*
X136790602Y-91120827D01*
X136730264Y-91266498D01*
X136730261Y-91266510D01*
X136699500Y-91421153D01*
X136699500Y-91578846D01*
X136730261Y-91733489D01*
X136730264Y-91733501D01*
X136790602Y-91879172D01*
X136790609Y-91879185D01*
X136878602Y-92010874D01*
X136899480Y-92077551D01*
X136899500Y-92079765D01*
X136899500Y-92823074D01*
X136899499Y-92823092D01*
X136899499Y-92988798D01*
X136899498Y-92988798D01*
X136940424Y-93141533D01*
X136940425Y-93141534D01*
X136962579Y-93179905D01*
X136962580Y-93179906D01*
X137019477Y-93278456D01*
X137019481Y-93278461D01*
X137138349Y-93397329D01*
X137138355Y-93397334D01*
X138038181Y-94297160D01*
X138071666Y-94358483D01*
X138074500Y-94384841D01*
X138074500Y-100083480D01*
X138054815Y-100150519D01*
X138038181Y-100171161D01*
X137919531Y-100289810D01*
X137919530Y-100289811D01*
X137831522Y-100435393D01*
X137780913Y-100597807D01*
X137774500Y-100668386D01*
X137774500Y-101331613D01*
X137780913Y-101402192D01*
X137780913Y-101402194D01*
X137780914Y-101402196D01*
X137783497Y-101410484D01*
X137831522Y-101564606D01*
X137919530Y-101710188D01*
X138039811Y-101830469D01*
X138039813Y-101830470D01*
X138039815Y-101830472D01*
X138185394Y-101918478D01*
X138347804Y-101969086D01*
X138418384Y-101975500D01*
X138418387Y-101975500D01*
X138931613Y-101975500D01*
X138931616Y-101975500D01*
X139002196Y-101969086D01*
X139164606Y-101918478D01*
X139310185Y-101830472D01*
X139310189Y-101830468D01*
X139412319Y-101728339D01*
X139473642Y-101694854D01*
X139543334Y-101699838D01*
X139587681Y-101728339D01*
X139689811Y-101830469D01*
X139689813Y-101830470D01*
X139689815Y-101830472D01*
X139835394Y-101918478D01*
X139997804Y-101969086D01*
X140068384Y-101975500D01*
X140068387Y-101975500D01*
X140581613Y-101975500D01*
X140581616Y-101975500D01*
X140652196Y-101969086D01*
X140814606Y-101918478D01*
X140960185Y-101830472D01*
X141080472Y-101710185D01*
X141168478Y-101564606D01*
X141219086Y-101402196D01*
X141225500Y-101331616D01*
X141225500Y-101175097D01*
X141245185Y-101108058D01*
X141261819Y-101087416D01*
X141768572Y-100580663D01*
X142514662Y-99834572D01*
X142575983Y-99801089D01*
X142578150Y-99800638D01*
X142636085Y-99789113D01*
X142733497Y-99769737D01*
X142879179Y-99709394D01*
X143010289Y-99621789D01*
X143098869Y-99533208D01*
X143160190Y-99499724D01*
X143229881Y-99504708D01*
X143274230Y-99533209D01*
X148838181Y-105097160D01*
X148871666Y-105158483D01*
X148874500Y-105184841D01*
X148874500Y-111163838D01*
X148854815Y-111230877D01*
X148802011Y-111276632D01*
X148732853Y-111286576D01*
X148694205Y-111274323D01*
X148643414Y-111248444D01*
X148643413Y-111248443D01*
X148643412Y-111248443D01*
X148441243Y-111182754D01*
X148441241Y-111182753D01*
X148441240Y-111182753D01*
X148279957Y-111157208D01*
X148231287Y-111149500D01*
X147768713Y-111149500D01*
X147720042Y-111157208D01*
X147558760Y-111182753D01*
X147356585Y-111248444D01*
X147167179Y-111344951D01*
X146995213Y-111469890D01*
X146844890Y-111620213D01*
X146719948Y-111792184D01*
X146719947Y-111792185D01*
X146699765Y-111831795D01*
X146651791Y-111882591D01*
X146589281Y-111899500D01*
X139415097Y-111899500D01*
X139348058Y-111879815D01*
X139327416Y-111863181D01*
X135702798Y-108238563D01*
X135669313Y-108177240D01*
X135672547Y-108112566D01*
X135713553Y-107986368D01*
X135744066Y-107793716D01*
X135750500Y-107753097D01*
X135750500Y-107516902D01*
X135713553Y-107283631D01*
X135670543Y-107151261D01*
X135640568Y-107059008D01*
X135640566Y-107059005D01*
X135640566Y-107059003D01*
X135533342Y-106848566D01*
X135394517Y-106657490D01*
X135227510Y-106490483D01*
X135192872Y-106465317D01*
X135150207Y-106409989D01*
X135144228Y-106340375D01*
X135176833Y-106278580D01*
X135192873Y-106264682D01*
X135227510Y-106239517D01*
X135394517Y-106072510D01*
X135533343Y-105881433D01*
X135640568Y-105670992D01*
X135713553Y-105446368D01*
X135750500Y-105213097D01*
X135750500Y-104976902D01*
X135713553Y-104743631D01*
X135640566Y-104519003D01*
X135533342Y-104308566D01*
X135513971Y-104281904D01*
X135394517Y-104117490D01*
X135227510Y-103950483D01*
X135192872Y-103925317D01*
X135150207Y-103869989D01*
X135144228Y-103800375D01*
X135176833Y-103738580D01*
X135192873Y-103724682D01*
X135227510Y-103699517D01*
X135394517Y-103532510D01*
X135533343Y-103341433D01*
X135640568Y-103130992D01*
X135713553Y-102906368D01*
X135750500Y-102673097D01*
X135750500Y-102436902D01*
X135713553Y-102203631D01*
X135640566Y-101979003D01*
X135564885Y-101830472D01*
X135533343Y-101768567D01*
X135394517Y-101577490D01*
X135227510Y-101410483D01*
X135192872Y-101385317D01*
X135150207Y-101329989D01*
X135144228Y-101260375D01*
X135176833Y-101198580D01*
X135192873Y-101184682D01*
X135227510Y-101159517D01*
X135394517Y-100992510D01*
X135533343Y-100801433D01*
X135640568Y-100590992D01*
X135713553Y-100366368D01*
X135723352Y-100304500D01*
X135750500Y-100133097D01*
X135750500Y-99896902D01*
X135713553Y-99663631D01*
X135640566Y-99439003D01*
X135533342Y-99228566D01*
X135394517Y-99037490D01*
X135227510Y-98870483D01*
X135192872Y-98845317D01*
X135150207Y-98789989D01*
X135144228Y-98720375D01*
X135176833Y-98658580D01*
X135192873Y-98644682D01*
X135227510Y-98619517D01*
X135394517Y-98452510D01*
X135533343Y-98261433D01*
X135640568Y-98050992D01*
X135713553Y-97826368D01*
X135718872Y-97792788D01*
X135750500Y-97593097D01*
X135750500Y-97356902D01*
X135713553Y-97123631D01*
X135679365Y-97018412D01*
X135640568Y-96899008D01*
X135640566Y-96899005D01*
X135640566Y-96899003D01*
X135533342Y-96688566D01*
X135513104Y-96660711D01*
X135394517Y-96497490D01*
X135227510Y-96330483D01*
X135192872Y-96305317D01*
X135150207Y-96249989D01*
X135144228Y-96180375D01*
X135176833Y-96118580D01*
X135192873Y-96104682D01*
X135227510Y-96079517D01*
X135394517Y-95912510D01*
X135533343Y-95721433D01*
X135640568Y-95510992D01*
X135713553Y-95286368D01*
X135735058Y-95150591D01*
X135750500Y-95053097D01*
X135750500Y-94816902D01*
X135713553Y-94583631D01*
X135679689Y-94479412D01*
X135640568Y-94359008D01*
X135640566Y-94359005D01*
X135640566Y-94359003D01*
X135533342Y-94148566D01*
X135394517Y-93957490D01*
X135227510Y-93790483D01*
X135192872Y-93765317D01*
X135150207Y-93709989D01*
X135144228Y-93640375D01*
X135176833Y-93578580D01*
X135192873Y-93564682D01*
X135227510Y-93539517D01*
X135394517Y-93372510D01*
X135533343Y-93181433D01*
X135640568Y-92970992D01*
X135713553Y-92746368D01*
X135721320Y-92697328D01*
X135750500Y-92513097D01*
X135750500Y-92276902D01*
X135713553Y-92043631D01*
X135679689Y-91939412D01*
X135640568Y-91819008D01*
X135640566Y-91819005D01*
X135640566Y-91819003D01*
X135584002Y-91707991D01*
X135533343Y-91608567D01*
X135394517Y-91417490D01*
X135227510Y-91250483D01*
X135192872Y-91225317D01*
X135150207Y-91169989D01*
X135144228Y-91100375D01*
X135176833Y-91038580D01*
X135192873Y-91024682D01*
X135227510Y-90999517D01*
X135394517Y-90832510D01*
X135533343Y-90641433D01*
X135640568Y-90430992D01*
X135713553Y-90206368D01*
X135750500Y-89973097D01*
X135750500Y-89964097D01*
X135770185Y-89897058D01*
X135822989Y-89851303D01*
X135892147Y-89841359D01*
X135955703Y-89870384D01*
G37*
%TD.AperFunction*%
%TA.AperFunction,NonConductor*%
G36*
X104858363Y-90911191D02*
G01*
X104895082Y-90970634D01*
X104899500Y-91003439D01*
X104899500Y-103699903D01*
X104879815Y-103766942D01*
X104863181Y-103787584D01*
X95787584Y-112863181D01*
X95726261Y-112896666D01*
X95699903Y-112899500D01*
X90910719Y-112899500D01*
X90843680Y-112879815D01*
X90800235Y-112831795D01*
X90780052Y-112792185D01*
X90780051Y-112792184D01*
X90655109Y-112620213D01*
X90516294Y-112481398D01*
X90482809Y-112420075D01*
X90487793Y-112350383D01*
X90529665Y-112294450D01*
X90538879Y-112288178D01*
X90544331Y-112284814D01*
X90544334Y-112284814D01*
X90693656Y-112192712D01*
X90817712Y-112068656D01*
X90909814Y-111919334D01*
X90964999Y-111752797D01*
X90969177Y-111711896D01*
X90995573Y-111647207D01*
X91052753Y-111607055D01*
X91092535Y-111600500D01*
X95413331Y-111600500D01*
X95413347Y-111600501D01*
X95420943Y-111600501D01*
X95579054Y-111600501D01*
X95579057Y-111600501D01*
X95731785Y-111559577D01*
X95781904Y-111530639D01*
X95868716Y-111480520D01*
X95980520Y-111368716D01*
X95980520Y-111368714D01*
X95990728Y-111358507D01*
X95990730Y-111358504D01*
X104368713Y-102980521D01*
X104368716Y-102980520D01*
X104480520Y-102868716D01*
X104530639Y-102781904D01*
X104559577Y-102731785D01*
X104600500Y-102579058D01*
X104600500Y-102420943D01*
X104600500Y-91079765D01*
X104605828Y-91061619D01*
X104606166Y-91042711D01*
X104619665Y-91014495D01*
X104620185Y-91012726D01*
X104621398Y-91010874D01*
X104672398Y-90934548D01*
X104726011Y-90889743D01*
X104795336Y-90881036D01*
X104858363Y-90911191D01*
G37*
%TD.AperFunction*%
%TA.AperFunction,NonConductor*%
G36*
X106305703Y-86438228D02*
G01*
X106312181Y-86444260D01*
X106377942Y-86510021D01*
X106377946Y-86510024D01*
X106509049Y-86597625D01*
X106509062Y-86597632D01*
X106654733Y-86657970D01*
X106654738Y-86657972D01*
X106809388Y-86688734D01*
X106809391Y-86688735D01*
X106809393Y-86688735D01*
X106967079Y-86688735D01*
X106967080Y-86688734D01*
X107121732Y-86657972D01*
X107202167Y-86624654D01*
X107222043Y-86622517D01*
X107240773Y-86615532D01*
X107256069Y-86618859D01*
X107271636Y-86617186D01*
X107289513Y-86626134D01*
X107309046Y-86630384D01*
X107331334Y-86647069D01*
X107334115Y-86648461D01*
X107337300Y-86651535D01*
X107397200Y-86711435D01*
X107430685Y-86772758D01*
X107427450Y-86837433D01*
X107386447Y-86963628D01*
X107349500Y-87196902D01*
X107349500Y-87433097D01*
X107386446Y-87666368D01*
X107459433Y-87890996D01*
X107503516Y-87977512D01*
X107566657Y-88101433D01*
X107705483Y-88292510D01*
X107872490Y-88459517D01*
X107907127Y-88484683D01*
X107949792Y-88540013D01*
X107955771Y-88609626D01*
X107923165Y-88671421D01*
X107907130Y-88685315D01*
X107889365Y-88698222D01*
X107872488Y-88710484D01*
X107705485Y-88877487D01*
X107705485Y-88877488D01*
X107705483Y-88877490D01*
X107682526Y-88909088D01*
X107566657Y-89068566D01*
X107459433Y-89279003D01*
X107386446Y-89503631D01*
X107349500Y-89736902D01*
X107349500Y-89973097D01*
X107386446Y-90206368D01*
X107459433Y-90430996D01*
X107554416Y-90617409D01*
X107566657Y-90641433D01*
X107705483Y-90832510D01*
X107872490Y-90999517D01*
X107907127Y-91024683D01*
X107949792Y-91080013D01*
X107955771Y-91149626D01*
X107923165Y-91211421D01*
X107907130Y-91225315D01*
X107907047Y-91225376D01*
X107872488Y-91250484D01*
X107705485Y-91417487D01*
X107705485Y-91417488D01*
X107705483Y-91417490D01*
X107667412Y-91469890D01*
X107566657Y-91608566D01*
X107459433Y-91819003D01*
X107386446Y-92043631D01*
X107349500Y-92276902D01*
X107349500Y-92513097D01*
X107386446Y-92746368D01*
X107459433Y-92970996D01*
X107525420Y-93100501D01*
X107566657Y-93181433D01*
X107705483Y-93372510D01*
X107872490Y-93539517D01*
X107907127Y-93564683D01*
X107949792Y-93620013D01*
X107955771Y-93689626D01*
X107923165Y-93751421D01*
X107907130Y-93765315D01*
X107889365Y-93778222D01*
X107872488Y-93790484D01*
X107705485Y-93957487D01*
X107705485Y-93957488D01*
X107705483Y-93957490D01*
X107645862Y-94039550D01*
X107566657Y-94148566D01*
X107459433Y-94359003D01*
X107386446Y-94583631D01*
X107349500Y-94816902D01*
X107349500Y-95053097D01*
X107386446Y-95286368D01*
X107459433Y-95510996D01*
X107561394Y-95711103D01*
X107566657Y-95721433D01*
X107705483Y-95912510D01*
X107872490Y-96079517D01*
X107907127Y-96104683D01*
X107949792Y-96160013D01*
X107955771Y-96229626D01*
X107923165Y-96291421D01*
X107907130Y-96305315D01*
X107889365Y-96318222D01*
X107872488Y-96330484D01*
X107705485Y-96497487D01*
X107705485Y-96497488D01*
X107705483Y-96497490D01*
X107694386Y-96512764D01*
X107566657Y-96688566D01*
X107459433Y-96899003D01*
X107386446Y-97123631D01*
X107349500Y-97356902D01*
X107349500Y-97593097D01*
X107386446Y-97826368D01*
X107459433Y-98050996D01*
X107548485Y-98225769D01*
X107566657Y-98261433D01*
X107705483Y-98452510D01*
X107872490Y-98619517D01*
X107907127Y-98644683D01*
X107949792Y-98700013D01*
X107955771Y-98769626D01*
X107923165Y-98831421D01*
X107907130Y-98845315D01*
X107889365Y-98858222D01*
X107872488Y-98870484D01*
X107705485Y-99037487D01*
X107705485Y-99037488D01*
X107705483Y-99037490D01*
X107655500Y-99106286D01*
X107566657Y-99228566D01*
X107459433Y-99439003D01*
X107386446Y-99663631D01*
X107349500Y-99896902D01*
X107349500Y-100133097D01*
X107386446Y-100366368D01*
X107459433Y-100590996D01*
X107549731Y-100768214D01*
X107566657Y-100801433D01*
X107705483Y-100992510D01*
X107872490Y-101159517D01*
X107907127Y-101184683D01*
X107949792Y-101240013D01*
X107955771Y-101309626D01*
X107923165Y-101371421D01*
X107907130Y-101385315D01*
X107889365Y-101398222D01*
X107872488Y-101410484D01*
X107705485Y-101577487D01*
X107705485Y-101577488D01*
X107705483Y-101577490D01*
X107645862Y-101659550D01*
X107566657Y-101768566D01*
X107459433Y-101979003D01*
X107386446Y-102203631D01*
X107349500Y-102436902D01*
X107349500Y-102673097D01*
X107386446Y-102906368D01*
X107459433Y-103130996D01*
X107566657Y-103341433D01*
X107705483Y-103532510D01*
X107872490Y-103699517D01*
X107907127Y-103724683D01*
X107949792Y-103780013D01*
X107955771Y-103849626D01*
X107923165Y-103911421D01*
X107907130Y-103925315D01*
X107889365Y-103938222D01*
X107872488Y-103950484D01*
X107705485Y-104117487D01*
X107705485Y-104117488D01*
X107705483Y-104117490D01*
X107645862Y-104199550D01*
X107566657Y-104308566D01*
X107459433Y-104519003D01*
X107386446Y-104743631D01*
X107349500Y-104976902D01*
X107349500Y-105213097D01*
X107386446Y-105446368D01*
X107459433Y-105670996D01*
X107566657Y-105881433D01*
X107705483Y-106072510D01*
X107872490Y-106239517D01*
X107907127Y-106264683D01*
X107949792Y-106320013D01*
X107955771Y-106389626D01*
X107923165Y-106451421D01*
X107907130Y-106465315D01*
X107889365Y-106478222D01*
X107872488Y-106490484D01*
X107705485Y-106657487D01*
X107705485Y-106657488D01*
X107705483Y-106657490D01*
X107645862Y-106739550D01*
X107566657Y-106848566D01*
X107459433Y-107059003D01*
X107386446Y-107283631D01*
X107349500Y-107516902D01*
X107349500Y-107753097D01*
X107386446Y-107986368D01*
X107459433Y-108210996D01*
X107566657Y-108421433D01*
X107705483Y-108612510D01*
X107872490Y-108779517D01*
X107907127Y-108804683D01*
X107949792Y-108860013D01*
X107955771Y-108929626D01*
X107923165Y-108991421D01*
X107907130Y-109005315D01*
X107889365Y-109018222D01*
X107872488Y-109030484D01*
X107705485Y-109197487D01*
X107705485Y-109197488D01*
X107705483Y-109197490D01*
X107645862Y-109279550D01*
X107566657Y-109388566D01*
X107459433Y-109599003D01*
X107386446Y-109823631D01*
X107349500Y-110056902D01*
X107349500Y-110293097D01*
X107386446Y-110526368D01*
X107459433Y-110750996D01*
X107566657Y-110961433D01*
X107705483Y-111152510D01*
X107872490Y-111319517D01*
X107907127Y-111344683D01*
X107949792Y-111400013D01*
X107955771Y-111469626D01*
X107923165Y-111531421D01*
X107907130Y-111545315D01*
X107889365Y-111558222D01*
X107872488Y-111570484D01*
X107705485Y-111737487D01*
X107705485Y-111737488D01*
X107705483Y-111737490D01*
X107665745Y-111792185D01*
X107566657Y-111928566D01*
X107459433Y-112139003D01*
X107386446Y-112363631D01*
X107349500Y-112596902D01*
X107349500Y-112833097D01*
X107386446Y-113066368D01*
X107459433Y-113290996D01*
X107538381Y-113445939D01*
X107566657Y-113501433D01*
X107705483Y-113692510D01*
X107872490Y-113859517D01*
X107907127Y-113884683D01*
X107949792Y-113940013D01*
X107955771Y-114009626D01*
X107923165Y-114071421D01*
X107907130Y-114085315D01*
X107889365Y-114098222D01*
X107872488Y-114110484D01*
X107705485Y-114277487D01*
X107705485Y-114277488D01*
X107705483Y-114277490D01*
X107645862Y-114359550D01*
X107566657Y-114468566D01*
X107563030Y-114475685D01*
X107508855Y-114582011D01*
X107506417Y-114586795D01*
X107458442Y-114637591D01*
X107395932Y-114654500D01*
X90679758Y-114654500D01*
X90612719Y-114634815D01*
X90566964Y-114582011D01*
X90557020Y-114512853D01*
X90586045Y-114449297D01*
X90592077Y-114442819D01*
X90613765Y-114421131D01*
X90655104Y-114379792D01*
X90655106Y-114379788D01*
X90655109Y-114379786D01*
X90729432Y-114277487D01*
X90780051Y-114207816D01*
X90780349Y-114207230D01*
X90800235Y-114168205D01*
X90848209Y-114117409D01*
X90910719Y-114100500D01*
X95913331Y-114100500D01*
X95913347Y-114100501D01*
X95920943Y-114100501D01*
X96079054Y-114100501D01*
X96079057Y-114100501D01*
X96231785Y-114059577D01*
X96281904Y-114030639D01*
X96368716Y-113980520D01*
X96480520Y-113868716D01*
X96480520Y-113868714D01*
X96490728Y-113858507D01*
X96490730Y-113858504D01*
X105868713Y-104480521D01*
X105868716Y-104480520D01*
X105980520Y-104368716D01*
X106030639Y-104281904D01*
X106059577Y-104231785D01*
X106100501Y-104079057D01*
X106100501Y-103920943D01*
X106100501Y-103913348D01*
X106100500Y-103913330D01*
X106100500Y-86531941D01*
X106120185Y-86464902D01*
X106172989Y-86419147D01*
X106242147Y-86409203D01*
X106305703Y-86438228D01*
G37*
%TD.AperFunction*%
%TA.AperFunction,NonConductor*%
G36*
X149466942Y-90820185D02*
G01*
X149487584Y-90836819D01*
X153363181Y-94712416D01*
X153396666Y-94773739D01*
X153399500Y-94800097D01*
X153399500Y-111199902D01*
X153379815Y-111266941D01*
X153363181Y-111287583D01*
X149686079Y-114964684D01*
X149624756Y-114998169D01*
X149555064Y-114993185D01*
X149499131Y-114951313D01*
X149475925Y-114896401D01*
X149475500Y-114893717D01*
X149475500Y-114893713D01*
X149442246Y-114683757D01*
X149397851Y-114547126D01*
X149395857Y-114477290D01*
X149428100Y-114421133D01*
X149843713Y-114005521D01*
X149843716Y-114005520D01*
X149955520Y-113893716D01*
X150005639Y-113806904D01*
X150034577Y-113756785D01*
X150075501Y-113604057D01*
X150075501Y-113445943D01*
X150075501Y-113438348D01*
X150075500Y-113438330D01*
X150075500Y-104805689D01*
X150075500Y-104805687D01*
X150034577Y-104652960D01*
X150034573Y-104652953D01*
X149955524Y-104516034D01*
X149955521Y-104516030D01*
X149955520Y-104516028D01*
X149843716Y-104404224D01*
X149843715Y-104404223D01*
X149839385Y-104399893D01*
X149839374Y-104399883D01*
X148501671Y-103062180D01*
X148468186Y-103000857D01*
X148473170Y-102931165D01*
X148515042Y-102875232D01*
X148580506Y-102850815D01*
X148589352Y-102850499D01*
X148975002Y-102850499D01*
X148975008Y-102850499D01*
X149077797Y-102839999D01*
X149244334Y-102784814D01*
X149393656Y-102692712D01*
X149517712Y-102568656D01*
X149609814Y-102419334D01*
X149664999Y-102252797D01*
X149675500Y-102150009D01*
X149675499Y-100849992D01*
X149667145Y-100768216D01*
X149664999Y-100747203D01*
X149664998Y-100747200D01*
X149662749Y-100740412D01*
X149609814Y-100580666D01*
X149517712Y-100431344D01*
X149393656Y-100307288D01*
X149244334Y-100215186D01*
X149244333Y-100215185D01*
X149238878Y-100211821D01*
X149192154Y-100159873D01*
X149180931Y-100090910D01*
X149208775Y-100026828D01*
X149216272Y-100018623D01*
X149355104Y-99879792D01*
X149480051Y-99707816D01*
X149576557Y-99518412D01*
X149642246Y-99316243D01*
X149675500Y-99106287D01*
X149675500Y-98893713D01*
X149642246Y-98683757D01*
X149576557Y-98481588D01*
X149480051Y-98292184D01*
X149480049Y-98292181D01*
X149480048Y-98292179D01*
X149355109Y-98120213D01*
X149204792Y-97969896D01*
X149040204Y-97850316D01*
X148997540Y-97794989D01*
X148991561Y-97725376D01*
X149024166Y-97663580D01*
X149040199Y-97649686D01*
X149204792Y-97530104D01*
X149355104Y-97379792D01*
X149355106Y-97379788D01*
X149355109Y-97379786D01*
X149480048Y-97207820D01*
X149480047Y-97207820D01*
X149480051Y-97207816D01*
X149576557Y-97018412D01*
X149642246Y-96816243D01*
X149675500Y-96606287D01*
X149675500Y-96393713D01*
X149642246Y-96183757D01*
X149576557Y-95981588D01*
X149480051Y-95792184D01*
X149480049Y-95792181D01*
X149480048Y-95792179D01*
X149355109Y-95620213D01*
X149204786Y-95469890D01*
X149032820Y-95344951D01*
X148917844Y-95286368D01*
X148868204Y-95261075D01*
X148817409Y-95213102D01*
X148800500Y-95150591D01*
X148800500Y-90924500D01*
X148820185Y-90857461D01*
X148872989Y-90811706D01*
X148924500Y-90800500D01*
X149399903Y-90800500D01*
X149466942Y-90820185D01*
G37*
%TD.AperFunction*%
M02*
